<svg viewBox="0 0 511 512" xmlns="http://www.w3.org/2000/svg"><path d="m26.597656 72.871094 46.742188-46.742188c24.835937-24.839844 65.109375-24.839844 89.949218 0l323.050782 323.050782c24.835937 24.839843 24.835937 65.109374 0 89.949218l-46.742188 46.742188c-24.839844 24.839844-65.113281 24.839844-89.953125 0l-323.046875-323.050782c-24.839844-24.839843-24.839844-65.109374 0-89.949218zm0 0" fill="#fff"/><path d="m495.363281 427.746094c15.300781-24.542969 12.300781-57.238282-9.027343-78.566406l-323.046876-323.050782c-21.328124-21.328125-54.027343-24.324218-78.570312-9.027344zm0 0" fill="#e2ebf9"/><path d="m439.59375 485.871094 46.742188-46.742188h.003906zm0 0" fill="#efca9e"/><path d="m73.339844 485.871094-46.742188-46.742188c-24.839844-24.839844-24.839844-65.109375 0-89.949218l323.046875-323.050782c24.839844-24.839844 65.113281-24.839844 89.953125 0l46.742188 46.742188c24.835937 24.839844 24.835937 65.109375 0 89.949218l-323.050782 323.050782c-24.839843 24.839844-65.113281 24.839844-89.949218 0zm0 0" fill="#fff"/><path d="m495.105469 83.839844-410.796875 410.800781c24.585937 15.589844 57.53125 12.675781 78.980468-8.769531l323.050782-323.050782c21.445312-21.445312 24.355468-54.390624 8.765625-78.980468zm0 0" fill="#e2ebf9"/><path d="m206.5625 365.582031-59.679688-59.679687c-6.140624-6.140625-6.140624-16.101563 0-22.242188l137.242188-137.246094c6.144531-6.140624 16.101562-6.140624 22.246094 0l59.679687 59.679688c6.140625 6.144531 6.140625 16.101562 0 22.246094l-137.242187 137.242187c-6.144532 6.144531-16.101563 6.144531-22.246094 0zm0 0" fill="#ffc943"/><g fill="#ff914d"><path d="m295.460938 180.332031c-2.9375-2.9375-7.695313-2.9375-10.632813 0-2.9375 2.933594-2.9375 7.695313 0 10.632813 2.9375 2.933594 7.695313 2.933594 10.632813 0 2.9375-2.9375 2.9375-7.699219 0-10.632813zm0 0"/><path d="m313.796875 198.667969c-2.9375-2.9375-7.695313-2.9375-10.632813 0-2.9375 2.933593-2.9375 7.695312 0 10.632812 2.9375 2.933594 7.695313 2.933594 10.632813 0 2.9375-2.9375 2.9375-7.699219 0-10.632812zm0 0"/><path d="m332.132812 217.003906c-2.9375-2.9375-7.695312-2.9375-10.632812 0-2.9375 2.933594-2.9375 7.695313 0 10.632813 2.9375 2.933593 7.695312 2.933593 10.632812 0 2.9375-2.9375 2.9375-7.699219 0-10.632813zm0 0"/><path d="m269.453125 206.339844c-2.9375-2.9375-7.699219-2.9375-10.632813 0-2.9375 2.933594-2.9375 7.695312 0 10.632812 2.933594 2.9375 7.695313 2.9375 10.632813 0s2.9375-7.699218 0-10.632812zm0 0"/><path d="m287.789062 224.675781c-2.9375-2.9375-7.699218-2.9375-10.632812 0-2.9375 2.933594-2.9375 7.695313 0 10.632813 2.933594 2.9375 7.695312 2.9375 10.632812 0s2.9375-7.699219 0-10.632813zm0 0"/><path d="m306.125 243.011719c-2.9375-2.9375-7.699219-2.9375-10.632812 0-2.9375 2.933593-2.9375 7.695312 0 10.632812 2.933593 2.9375 7.695312 2.9375 10.632812 0 2.933594-2.9375 2.933594-7.699219 0-10.632812zm0 0"/><path d="m243.445312 232.347656c-2.9375-2.9375-7.699218-2.9375-10.636718 0-2.933594 2.9375-2.933594 7.695313 0 10.632813 2.9375 2.9375 7.699218 2.9375 10.636718 0 2.933594-2.9375 2.933594-7.695313 0-10.632813zm0 0"/><path d="m261.78125 250.683594c-2.9375-2.9375-7.699219-2.9375-10.636719 0-2.933593 2.9375-2.933593 7.695312 0 10.632812 2.9375 2.9375 7.699219 2.9375 10.636719 0 2.933594-2.9375 2.933594-7.695312 0-10.632812zm0 0"/><path d="m280.117188 269.019531c-2.9375-2.9375-7.699219-2.9375-10.636719 0-2.933594 2.9375-2.933594 7.695313 0 10.632813 2.9375 2.9375 7.699219 2.9375 10.636719 0 2.933593-2.9375 2.933593-7.695313 0-10.632813zm0 0"/><path d="m217.4375 258.355469c-2.9375-2.9375-7.699219-2.9375-10.636719 0-2.933593 2.9375-2.933593 7.695312 0 10.632812 2.9375 2.9375 7.699219 2.9375 10.636719 0 2.933594-2.9375 2.933594-7.695312 0-10.632812zm0 0"/><path d="m235.773438 276.691406c-2.9375-2.9375-7.699219-2.9375-10.636719 0-2.933594 2.9375-2.933594 7.699219 0 10.632813 2.9375 2.9375 7.699219 2.9375 10.636719 0 2.933593-2.933594 2.933593-7.695313 0-10.632813zm0 0"/><path d="m254.105469 295.027344c-2.933594-2.9375-7.695313-2.9375-10.632813 0-2.933594 2.9375-2.933594 7.699218 0 10.632812 2.9375 2.9375 7.699219 2.9375 10.632813 0 2.9375-2.933594 2.9375-7.695312 0-10.632812zm0 0"/><path d="m191.425781 284.363281c-2.9375-2.9375-7.695312-2.9375-10.632812 0s-2.9375 7.699219 0 10.632813c2.9375 2.9375 7.695312 2.9375 10.632812 0 2.9375-2.933594 2.9375-7.695313 0-10.632813zm0 0"/><path d="m209.761719 302.699219c-2.933594-2.933594-7.695313-2.933594-10.632813 0-2.9375 2.9375-2.9375 7.699219 0 10.632812 2.9375 2.9375 7.699219 2.9375 10.632813 0 2.9375-2.933593 2.9375-7.695312 0-10.632812zm0 0"/><path d="m228.097656 321.035156c-2.933594-2.933594-7.695312-2.933594-10.632812 0-2.9375 2.9375-2.9375 7.699219 0 10.632813 2.9375 2.9375 7.699218 2.9375 10.632812 0 2.9375-2.933594 2.9375-7.695313 0-10.632813zm0 0"/></g><path d="m118.3125 511.96875c-18.207031 0-36.417969-6.933594-50.277344-20.792969l-46.742187-46.742187c-27.722657-27.722656-27.722657-72.835938 0-100.558594l323.050781-323.050781c13.425781-13.429688 31.285156-20.824219 50.277344-20.824219 18.992187 0 36.847656 7.394531 50.277344 20.824219l46.742187 46.742187c27.722656 27.722656 27.722656 72.835938 0 100.558594l-323.050781 323.050781c-13.859375 13.859375-32.070313 20.792969-50.277344 20.792969zm276.308594-496.96875c-14.984375 0-29.074219 5.835938-39.671875 16.433594l-323.050781 323.050781c-10.597657 10.59375-16.433594 24.683594-16.433594 39.667969 0 14.988281 5.835937 29.078125 16.433594 39.671875l46.742187 46.742187c21.875 21.875 57.46875 21.875 79.34375 0l323.050781-323.050781c10.597656-10.59375 16.433594-24.683594 16.433594-39.667969 0-14.988281-5.835938-29.078125-16.433594-39.671875l-46.742187-46.742187c-10.597657-10.597656-24.6875-16.433594-39.671875-16.433594zm0 0" fill="#434c54"/><path d="m95 238.722656c-1.917969 0-3.839844-.730468-5.304688-2.195312l-68.402343-68.402344c-27.722657-27.722656-27.722657-72.835938 0-100.558594l46.742187-46.742187c27.722656-27.722657 72.832032-27.722657 100.558594 0l67.398438 67.402343c2.929687 2.929688 2.929687 7.675782 0 10.605469-2.929688 2.929688-7.679688 2.929688-10.605469 0l-67.402344-67.398437c-10.597656-10.597656-24.6875-16.433594-39.671875-16.433594s-29.074219 5.835938-39.671875 16.433594l-46.742187 46.742187c-21.875 21.875-21.875 57.46875 0 79.34375l68.402343 68.402344c2.929688 2.929687 2.929688 7.675781 0 10.605469-1.464843 1.464844-3.382812 2.195312-5.300781 2.195312zm0 0" fill="#434c54"/><path d="m394.621094 512c-18.992188 0-36.851563-7.394531-50.277344-20.824219l-69.421875-69.421875c-2.929687-2.929687-2.929687-7.679687 0-10.609375 2.929687-2.925781 7.675781-2.925781 10.605469 0l69.421875 69.421875c10.597656 10.597656 24.683593 16.433594 39.671875 16.433594 14.984375 0 29.074218-5.835938 39.671875-16.433594l46.742187-46.742187c10.597656-10.597657 16.433594-24.683594 16.433594-39.671875 0-14.984375-5.835938-29.074219-16.433594-39.667969l-68.421875-68.421875c-2.929687-2.925781-2.929687-7.675781 0-10.605469 2.929688-2.929687 7.679688-2.929687 10.609375 0l68.417969 68.421875c13.429687 13.425782 20.824219 31.28125 20.824219 50.277344 0 18.992188-7.394532 36.847656-20.824219 50.277344l-46.742187 46.742187c-13.429688 13.429688-31.285157 20.824219-50.277344 20.824219zm0 0" fill="#434c54"/></svg>