<svg viewBox="-10 0 512 512" xmlns="http://www.w3.org/2000/svg"><path d="m326.632812 512h-58.828124c-31.386719 0-56.921876-25.535156-56.921876-56.921875v-3.566406c0-4.140625 3.359376-7.5 7.5-7.5 4.144532 0 7.5 3.359375 7.5 7.5v3.566406c0 23.117187 18.804688 41.921875 41.921876 41.921875h58.828124c23.113282 0 41.917969-18.804688 41.917969-41.921875v-296.027344c0-29.367187 23.894531-53.261719 53.261719-53.261719 29.371094 0 53.265625 23.894532 53.265625 53.261719v23.210938c0 4.140625-3.359375 7.5-7.5 7.5-4.144531 0-7.5-3.359375-7.5-7.5v-23.210938c0-21.097656-17.167969-38.261719-38.265625-38.261719s-38.261719 17.164063-38.261719 38.261719v296.027344c0 31.386719-25.535156 56.921875-56.917969 56.921875zm0 0" fill="#aab2b9"/><path d="m473.480469 232.613281h-11.1875c-5.617188 0-10.171875-4.554687-10.171875-10.175781v-30.003906c0-5.617188 4.554687-10.171875 10.171875-10.171875h11.1875c5.617187 0 10.171875 4.554687 10.171875 10.171875v30.003906c0 5.621094-4.554688 10.175781-10.171875 10.175781zm0 0" fill="#5de1c0"/><path d="m280.359375 41.027344c-29.375-21.773438-64.96875-33.527344-101.53125-33.527344h-51.316406c-36.5625 0-72.15625 11.753906-101.53125 33.527344-11.625 8.617187-18.480469 22.230468-18.480469 36.703125v270.855469c0 17.398437 10.386719 33.113281 26.394531 39.933593l37.316407 15.894531h.007812v15.128907c0 3.582031 2.902344 6.484375 6.480469 6.484375h21.894531c3.582031 0 6.484375-2.902344 6.484375-6.484375v-15.128907h94.363281v40.613282c0 3.582031 2.902344 6.484375 6.484375 6.484375h21.890625c3.582032 0 6.484375-2.902344 6.484375-6.484375v-40.6875l37.144531-15.824219c16.007813-6.816406 26.394532-22.53125 26.394532-39.929687v-270.855469c0-14.472657-6.855469-28.085938-18.480469-36.703125zm0 0" fill="#fff"/><path d="m71.21875 419.546875c0 3.578125 2.902344 6.480469 6.484375 6.480469h21.894531c3.578125 0 6.480469-2.902344 6.480469-6.480469v-15.132813h-34.859375zm0 0" fill="#e2ebf9"/><path d="m280.359375 41.027344c-29.375-21.773438-64.96875-33.527344-101.53125-33.527344h-49c36.5625 0 72.15625 11.753906 101.53125 33.527344 11.625 8.617187 18.480469 22.230468 18.480469 36.703125v270.855469c0 17.398437-10.390625 33.113281-26.394532 39.933593l-37.144531 15.820313v.074218h14.140625v40.613282c0 3.582031 2.902344 6.484375 6.484375 6.484375h21.890625c3.582032 0 6.484375-2.902344 6.484375-6.484375v-40.6875l37.144531-15.820313c16.007813-6.820312 26.394532-22.535156 26.394532-39.933593v-270.855469c0-14.472657-6.855469-28.085938-18.480469-36.703125zm0 0" fill="#e2ebf9"/><path d="m111.773438 375.574219c-22.882813 0-45.527344-4.621094-66.578126-13.589844-5.378906-2.292969-8.855468-7.550781-8.855468-13.398437v-241.054688c0-5.289062 2.464844-10.300781 6.714844-13.457031 24.25-18.011719 54.25-27.929688 84.457031-27.929688h51.316406c30.207031 0 60.207031 9.921875 84.457031 27.929688 4.246094 3.15625 6.710938 8.167969 6.710938 13.457031v241.058594c0 5.835937-3.484375 11.105468-8.851563 13.394531h-.003906c-21.050781 8.96875-43.695313 13.589844-66.574219 13.589844zm0 0" fill="#ffaa16"/><path d="m263.285156 94.074219c-12.816406-9.519531-27.242187-16.777344-42.453125-21.503907v300.953126c13.828125-2.164063 27.367188-6.027344 40.308594-11.539063h.003906c5.367188-2.285156 8.851563-7.558594 8.851563-13.394531v-241.058594c0-5.289062-2.464844-10.300781-6.710938-13.457031zm0 0" fill="#ff914d"/><path d="m153.167969 132.921875s-39.277344 41.3125-39.277344 74.914063c0 20.132812 17.585937 36.449218 39.277344 36.449218 21.695312 0 39.28125-16.316406 39.28125-36.449218 0-33.601563-39.28125-74.914063-39.28125-74.914063zm0 0" fill="#fff"/><g fill="#ff8125"><path d="m223.199219 328.191406h-140.0625c-4.140625 0-7.5-3.359375-7.5-7.5s3.359375-7.5 7.5-7.5h140.0625c4.144531 0 7.5 3.359375 7.5 7.5s-3.355469 7.5-7.5 7.5zm0 0"/><path d="m223.199219 299.484375h-89.121094c-4.144531 0-7.5-3.359375-7.5-7.5s3.355469-7.5 7.5-7.5h89.121094c4.144531 0 7.5 3.359375 7.5 7.5s-3.355469 7.5-7.5 7.5zm0 0"/><path d="m98.828125 299.484375h-15.691406c-4.140625 0-7.5-3.359375-7.5-7.5s3.359375-7.5 7.5-7.5h15.691406c4.140625 0 7.5 3.359375 7.5 7.5s-3.359375 7.5-7.5 7.5zm0 0"/></g><path d="m284.824219 35.003906c-30.449219-22.574218-68.09375-35.003906-105.996094-35.003906h-51.316406c-37.902344 0-75.546875 12.429688-105.996094 35.003906-13.472656 9.984375-21.515625 25.957032-21.515625 42.726563v270.855469c0 20.441406 12.148438 38.820312 30.953125 46.832031l32.765625 13.957031v10.171875c0 7.710937 6.273438 13.980469 13.984375 13.980469h21.894531c7.710938 0 13.980469-6.269532 13.980469-13.980469v-7.632813h79.363281v33.113282c0 7.710937 6.273438 13.984375 13.984375 13.984375h21.890625c7.710938 0 13.984375-6.273438 13.984375-13.984375v-35.730469l32.585938-13.878906c18.800781-8.011719 30.953125-26.390625 30.953125-46.832031v-270.855469c0-16.769531-8.042969-32.742188-21.515625-42.726563zm-114.75-20.003906v2.324219c0 4.152343-3.378907 7.53125-7.53125 7.53125h-18.746094c-4.152344 0-7.53125-3.378907-7.53125-7.53125v-2.324219zm121.265625 333.585938c0 14.417968-8.570313 27.382812-21.832032 33.03125l-37.148437 15.824218c-2.765625 1.175782-4.558594 3.894532-4.558594 6.898438v39.671875h-19.863281v-39.597657c0-4.140624-3.355469-7.5-7.5-7.5h-94.359375c-4.140625 0-7.5 3.359376-7.5 7.5v14.113282h-19.859375v-14.113282c0-3.167968-1.96875-5.875-4.742188-6.972656l-37.144531-15.824218c-13.261719-5.648438-21.832031-18.613282-21.832031-33.03125v-270.855469c0-12.042969 5.773438-23.507813 15.445312-30.675781 26.210938-19.429688 58.242188-30.652344 90.820313-31.929688v2.199219c0 12.421875 10.105469 22.53125 22.53125 22.53125h18.746094c12.425781 0 22.53125-10.109375 22.53125-22.53125v-2.199219c32.578125 1.277344 64.609375 12.5 90.816406 31.929688 9.671875 7.167968 15.449219 18.636718 15.449219 30.675781zm0 0" fill="#434c54"/><path d="m473.480469 174.761719h-11.1875c-9.746094 0-17.671875 7.925781-17.671875 17.671875v30.003906c0 8.992188 6.753906 16.421875 15.457031 17.519531v20.042969c0 4.140625 3.355469 7.5 7.5 7.5 4.140625 0 7.5-3.359375 7.5-7.5v-19.96875c8.996094-.8125 16.074219-8.386719 16.074219-17.59375v-30.003906c0-9.746094-7.925782-17.671875-17.671875-17.671875zm2.671875 47.675781c0 1.472656-1.199219 2.671875-2.671875 2.671875h-11.1875c-1.472657 0-2.671875-1.199219-2.671875-2.671875v-30.003906c0-1.472656 1.199218-2.671875 2.671875-2.671875h11.1875c1.472656 0 2.671875 1.199219 2.671875 2.671875zm0 0" fill="#434c54"/></svg>