<svg viewBox="-25 0 512 512" xmlns="http://www.w3.org/2000/svg"><path d="m447.402344 436.980469-157.152344-228.570313c-7.488281-10.894531-11.5-23.804687-11.5-37.027344v-130.660156h-94.882812v130.660156c0 13.222657-4.007813 26.132813-11.5 37.03125l-157.152344 228.566407c-19.664063 28.597656.8125 67.519531 35.515625 67.519531h361.15625c34.703125 0 55.179687-38.921875 35.515625-67.519531zm0 0" fill="#fff"/><path d="m233.152344 197.378906 205.046875 298.234375c16.972656-13.164062 23.070312-38.464843 9.203125-58.632812l-157.152344-228.570313c-7.488281-10.894531-11.5-23.804687-11.5-37.027344v-130.660156h-49.515625v144.046875c0 4.503907 1.367187 8.902344 3.917969 12.609375zm0 0" fill="#e2ebf9"/><path d="m286.292969 56.972656h-109.96875c-8.410157 0-15.234375-6.820312-15.234375-15.234375v-19.003906c0-8.414063 6.820312-15.234375 15.234375-15.234375h109.96875c8.414062 0 15.234375 6.820312 15.234375 15.234375v19.003906c0 8.414063-6.820313 15.234375-15.234375 15.234375zm0 0" fill="#5de1c0"/><path d="m286.292969 7.5h-34.449219v49.472656h34.449219c8.410156 0 15.234375-6.820312 15.234375-15.234375v-19.003906c0-8.414063-6.820313-15.234375-15.234375-15.234375zm0 0" fill="#00c395"/><path d="m291.621094 260.007812h-120.625l-132.625 192.894532c-4.628906 6.738281-2.179688 13.070312-.914063 15.480468 1.269531 2.410157 5.097657 8.015626 13.273438 8.015626h361.15625c8.175781 0 12.003906-5.609376 13.273437-8.015626 1.265625-2.410156 3.714844-8.742187-.914062-15.480468zm0 0" fill="#ffdf24"/><path d="m291.621094 260.007812h-120.625l-132.625 192.894532c-4.628906 6.738281-2.179688 13.070312-.914063 15.480468 1.269531 2.410157 5.097657 8.015626 13.273438 8.015626h361.15625c8.175781 0 12.003906-5.609376 13.273437-8.015626 1.265625-2.410156 3.714844-8.742187-.914062-15.480468zm0 0" fill="#ffaa16"/><path d="m453.582031 432.730469-157.148437-228.566407c-6.664063-9.6875-10.183594-21.023437-10.183594-32.78125v-36.164062c0-4.140625-3.355469-7.5-7.5-7.5-4.140625 0-7.5 3.359375-7.5 7.5v36.164062c0 14.804688 4.433594 29.078126 12.820312 41.277344l157.152344 228.570313c7.628906 11.09375 8.4375 24.828125 2.171875 36.742187-6.265625 11.914063-18.042969 19.027344-31.507812 19.027344h-361.15625c-13.460938 0-25.242188-7.113281-31.507813-19.027344-6.265625-11.914062-5.453125-25.648437 2.171875-36.742187l157.152344-228.570313c8.386719-12.199218 12.820313-26.472656 12.820313-41.277344v-106.910156h79.882812v35.449219c0 4.140625 3.359375 7.5 7.5 7.5 4.144531 0 7.5-3.359375 7.5-7.5v-35.449219h.042969c12.535156 0 22.734375-10.199218 22.734375-22.734375v-19.003906c0-12.535156-10.199219-22.734375-22.734375-22.734375h-109.96875c-12.535157 0-22.730469 10.199219-22.730469 22.734375v19.003906c0 12.535157 10.195312 22.734375 22.730469 22.734375h.042969v106.910156c0 11.757813-3.519532 23.089844-10.179688 32.777344l-157.152344 228.570313c-10.839844 15.769531-11.996094 35.292969-3.085937 52.226562 8.90625 16.933594 25.644531 27.042969 44.78125 27.042969h361.15625c19.132812 0 35.875-10.109375 44.78125-27.042969 8.910156-16.9375 7.753906-36.457031-3.085938-52.226562zm-284.992187-390.992188v-19.003906c0-4.265625 3.472656-7.734375 7.734375-7.734375h109.96875c4.261719 0 7.730469 3.46875 7.730469 7.734375v19.003906c0 4.265625-3.46875 7.734375-7.730469 7.734375h-109.96875c-4.261719 0-7.734375-3.46875-7.734375-7.734375zm0 0" fill="#434c54"/></svg>