<?xml version="1.0"?>
<svg xmlns="http://www.w3.org/2000/svg" id="Layer_1" data-name="Layer 1" viewBox="0 0 128 128" width="512" height="512"><title>MEDICAL CHECK</title><path d="M66.843,49.837V44.86H61.157v4.977a1,1,0,0,1-1,1H55.18v5.685h4.977a1,1,0,0,1,1,1V62.5h5.686V57.523a1,1,0,0,1,1-1H72.82V50.837H67.843A1,1,0,0,1,66.843,49.837Z" style="fill:#ff5072"/><path d="M50.375,31.946A3.558,3.558,0,0,0,53.929,35.5H74.071a3.554,3.554,0,0,0,0-7.108H53.929A3.557,3.557,0,0,0,50.375,31.946Z" style="fill:#ff5072"/><path d="M48.508,33.143l-.043-.2H42.436a1.688,1.688,0,0,0-1.686,1.687V97.921a1.689,1.689,0,0,0,1.686,1.687H85.563a1.689,1.689,0,0,0,1.687-1.687V34.633a1.688,1.688,0,0,0-1.687-1.687H79.534l-.043.2a5.586,5.586,0,0,1-5.42,4.357H53.929A5.588,5.588,0,0,1,48.508,33.143ZM49.375,87.5h29.25a1,1,0,0,1,0,2H49.375a1,1,0,0,1,0-2Zm29.25-5.666H49.375a1,1,0,0,1,0-2h29.25a1,1,0,0,1,0,2Zm0-7.667H49.375a1,1,0,0,1,0-2h29.25a1,1,0,0,1,0,2Zm-4.8-25.329a1,1,0,0,1,1,1v7.685a1,1,0,0,1-1,1H68.843V63.5a1,1,0,0,1-1,1H60.157a1,1,0,0,1-1-1V58.523H54.18a1,1,0,0,1-1-1V49.837a1,1,0,0,1,1-1h4.977V43.86a1,1,0,0,1,1-1h7.686a1,1,0,0,1,1,1v4.977Z" style="fill:#fff"/><path d="M54.18,58.773h4.727V63.5a1.25,1.25,0,0,0,1.25,1.25h7.686a1.25,1.25,0,0,0,1.25-1.25V58.773H73.82a1.25,1.25,0,0,0,1.25-1.25V49.837a1.25,1.25,0,0,0-1.25-1.25H69.093V43.86a1.25,1.25,0,0,0-1.25-1.25H60.157a1.25,1.25,0,0,0-1.25,1.25v4.727H54.18a1.25,1.25,0,0,0-1.25,1.25v7.685A1.25,1.25,0,0,0,54.18,58.773Zm1.25-7.685h4.727a1.25,1.25,0,0,0,1.25-1.25V45.11h5.186v4.727a1.25,1.25,0,0,0,1.25,1.25H72.57v5.185H67.843a1.25,1.25,0,0,0-1.25,1.25V62.25H61.407V57.523a1.25,1.25,0,0,0-1.25-1.25H55.43Z" style="fill:#43222e"/><path d="M85.563,30.7H79.736a5.811,5.811,0,0,0-5.665-4.554H53.929A5.811,5.811,0,0,0,48.264,30.7H42.436A3.941,3.941,0,0,0,38.5,34.633V97.921a3.941,3.941,0,0,0,3.936,3.937H85.563A3.941,3.941,0,0,0,89.5,97.921V34.633A3.941,3.941,0,0,0,85.563,30.7ZM53.929,28.642H74.071a3.3,3.3,0,0,1,0,6.608H53.929a3.3,3.3,0,0,1,0-6.608ZM87,97.921a1.438,1.438,0,0,1-1.437,1.437H42.436A1.438,1.438,0,0,1,41,97.921V34.633A1.438,1.438,0,0,1,42.436,33.2h5.828a5.811,5.811,0,0,0,5.664,4.554H74.071A5.811,5.811,0,0,0,79.736,33.2h5.828A1.438,1.438,0,0,1,87,34.633Z" style="fill:#43222e"/><path d="M78.625,71.917H49.375a1.25,1.25,0,0,0,0,2.5h29.25a1.25,1.25,0,0,0,0-2.5Z" style="fill:#43222e"/><path d="M78.625,79.584H49.375a1.25,1.25,0,0,0,0,2.5h29.25a1.25,1.25,0,0,0,0-2.5Z" style="fill:#43222e"/><path d="M78.625,87.25H49.375a1.25,1.25,0,0,0,0,2.5h29.25a1.25,1.25,0,0,0,0-2.5Z" style="fill:#43222e"/></svg>
