<svg viewBox="-19 0 512 512" xmlns="http://www.w3.org/2000/svg"><path d="m451.855469 504.5h-428.953125c-8.503906 0-15.402344-6.894531-15.402344-15.402344v-428.953125c0-8.503906 6.894531-15.402343 15.402344-15.402343h428.953125c8.507812 0 15.402343 6.894531 15.402343 15.402343v428.953125c0 8.507813-6.894531 15.402344-15.402343 15.402344zm0 0" fill="#fff"/><path d="m451.855469 44.742188h-33.835938v459.757812h33.835938c8.503906 0 15.402343-6.894531 15.402343-15.402344v-428.953125c0-8.507812-6.894531-15.402343-15.402343-15.402343zm0 0" fill="#e2ebf9"/><path d="m60.574219 44.742188h353.609375v404.367187h-353.609375zm0 0" fill="#76ffda"/><path d="m365.027344 44.742188h49.15625v404.367187h-49.15625zm0 0" fill="#5de1c0"/><path d="m327.621094 245.125h-66.617188v-66.621094c0-2.121094-1.722656-3.84375-3.847656-3.84375h-39.558594c-2.121094 0-3.84375 1.722656-3.84375 3.84375v66.621094h-66.621094c-2.121093 0-3.84375 1.722656-3.84375 3.84375v39.558594c0 2.121094 1.722657 3.84375 3.84375 3.84375h66.621094v66.621094c0 2.121093 1.722656 3.84375 3.84375 3.84375h39.558594c2.125 0 3.847656-1.722657 3.847656-3.84375v-66.621094h66.617188c2.125 0 3.847656-1.722656 3.847656-3.84375v-39.558594c0-2.121094-1.722656-3.84375-3.847656-3.84375zm0 0" fill="#fff"/><path d="m451.855469 44.742188h-428.953125c-8.503906 0-15.402344 6.894531-15.402344 15.402343v52.890625h459.757812v-52.890625c0-8.507812-6.894531-15.402343-15.402343-15.402343zm0 0" fill="#ffaa16"/><path d="m466.566406 55.566406c-.601562-1.929687-1.570312-3.699218-2.824218-5.21875-2.828126-3.421875-7.101563-5.605468-11.886719-5.605468h-33.835938v68.292968h49.238281v-52.890625c0-1.59375-.242187-3.132812-.691406-4.578125zm0 0" fill="#ff914d"/><g fill="#ff8125"><path d="m83.621094 78.890625c-13.355469 0-24.183594-10.828125-24.183594-24.1875v-23.019531c0-13.355469 10.828125-24.183594 24.183594-24.183594 13.355468 0 24.183594 10.828125 24.183594 24.183594v23.019531c0 13.359375-10.828126 24.1875-24.183594 24.1875zm0 0"/><path d="m186.125 78.890625c-13.355469 0-24.183594-10.828125-24.183594-24.1875v-23.019531c0-13.355469 10.828125-24.183594 24.183594-24.183594s24.183594 10.828125 24.183594 24.183594v23.019531c0 13.359375-10.824219 24.1875-24.183594 24.1875zm0 0"/><path d="m288.632812 78.890625c-13.355468 0-24.183593-10.828125-24.183593-24.1875v-23.019531c0-13.355469 10.828125-24.183594 24.183593-24.183594 13.355469 0 24.183594 10.828125 24.183594 24.183594v23.019531c0 13.359375-10.828125 24.1875-24.183594 24.1875zm0 0"/><path d="m391.136719 78.890625c-13.355469 0-24.183594-10.828125-24.183594-24.1875v-23.019531c0-13.355469 10.828125-24.183594 24.183594-24.183594s24.183593 10.828125 24.183593 24.183594v23.019531c0 13.359375-10.828124 24.1875-24.183593 24.1875zm0 0"/></g><path d="m257.15625 370.335938h-39.558594c-6.253906 0-11.34375-5.089844-11.34375-11.34375v-59.121094h-59.121094c-6.253906 0-11.34375-5.089844-11.34375-11.34375v-39.558594c0-6.257812 5.089844-11.347656 11.34375-11.347656h59.121094v-59.117188c0-6.257812 5.089844-11.347656 11.34375-11.347656h39.558594c6.257812 0 11.347656 5.089844 11.347656 11.347656v59.117188h59.117188c6.257812 0 11.347656 5.089844 11.347656 11.347656v39.558594c0 6.253906-5.089844 11.34375-11.347656 11.34375h-59.117188v59.121094c0 6.253906-5.089844 11.34375-11.347656 11.34375zm-35.898438-15h32.246094v-62.964844c0-4.140625 3.355469-7.5 7.5-7.5h62.964844v-32.246094h-62.964844c-4.144531 0-7.5-3.359375-7.5-7.5v-62.964844h-32.246094v62.964844c0 4.140625-3.359374 7.5-7.5 7.5h-62.96875v32.246094h62.96875c4.140626 0 7.5 3.359375 7.5 7.5zm106.363282-102.710938h.011718zm0 0" fill="#00c395"/><path d="m451.855469 37.242188h-29.035157v-5.558594c0-17.46875-14.210937-31.683594-31.683593-31.683594-17.46875 0-31.683594 14.214844-31.683594 31.683594v5.558594h-39.136719v-5.558594c0-17.46875-14.214844-31.683594-31.683594-31.683594-17.472656 0-31.683593 14.214844-31.683593 31.683594v5.558594h-39.140625v-5.558594c0-17.46875-14.210938-31.683594-31.683594-31.683594-17.46875 0-31.683594 14.214844-31.683594 31.683594v5.558594h-39.136718v-5.558594c0-17.46875-14.214844-31.683594-31.683594-31.683594-17.472656 0-31.683594 14.214844-31.683594 31.683594v5.558594h-29.035156c-12.628906 0-22.902344 10.273437-22.902344 22.902343v428.953125c0 12.628906 10.273438 22.902344 22.902344 22.902344h428.953125c12.628906 0 22.902343-10.273438 22.902343-22.902344v-428.953125c0-12.628906-10.273437-22.902343-22.902343-22.902343zm-77.402344-5.558594c0-9.199219 7.484375-16.683594 16.683594-16.683594 9.203125 0 16.683593 7.484375 16.683593 16.683594v23.019531c0 9.203125-7.480468 16.6875-16.683593 16.6875-9.199219 0-16.683594-7.484375-16.683594-16.6875zm-102.503906 0c0-9.199219 7.484375-16.683594 16.683593-16.683594 9.199219 0 16.683594 7.484375 16.683594 16.683594v23.019531c0 9.203125-7.484375 16.6875-16.683594 16.6875-9.199218 0-16.683593-7.484375-16.683593-16.6875zm-102.507813 0c0-9.199219 7.484375-16.683594 16.683594-16.683594s16.683594 7.484375 16.683594 16.683594v23.019531c0 9.203125-7.484375 16.6875-16.683594 16.6875s-16.683594-7.484375-16.683594-16.6875zm-102.503906 0c0-9.199219 7.484375-16.683594 16.683594-16.683594 9.199218 0 16.683594 7.484375 16.683594 16.683594v23.019531c0 9.203125-7.484376 16.6875-16.683594 16.6875-9.199219 0-16.683594-7.484375-16.683594-16.6875zm-44.035156 20.558594h29.035156v2.460937c0 17.472656 14.210938 31.6875 31.683594 31.6875 17.46875 0 31.683594-14.214844 31.683594-31.6875v-2.460937h39.136718v2.460937c0 17.472656 14.214844 31.6875 31.6875 31.6875 17.46875 0 31.683594-14.214844 31.683594-31.6875v-2.460937h39.136719v2.460937c0 17.472656 14.214843 31.6875 31.683593 31.6875 17.472657 0 31.683594-14.214844 31.683594-31.6875v-2.460937h39.140625v2.460937c0 17.472656 14.214844 31.6875 31.683594 31.6875 17.472656 0 31.683594-14.214844 31.683594-31.6875v-2.460937h29.035156c4.355469 0 7.902344 3.542968 7.902344 7.902343v45.390625h-444.761719v-45.390625c0-4.355469 3.546875-7.902343 7.902344-7.902343zm428.953125 444.757812h-428.953125c-4.355469 0-7.902344-3.546875-7.902344-7.902344v-368.5625h444.757812v368.5625c0 4.355469-3.546874 7.902344-7.902343 7.902344zm0 0" fill="#434c54"/></svg>