<svg viewBox="0 -38 512 512" xmlns="http://www.w3.org/2000/svg"><path d="m462.445312 428.132812h-412.890624c-13.007813 0-23.550782-10.546874-23.550782-23.554687v-286.703125c0-13.007812 10.546875-23.550781 23.550782-23.550781h412.890624c13.007813 0 23.550782 10.542969 23.550782 23.550781v286.703125c0 13.007813-10.542969 23.554687-23.550782 23.554687zm0 0" fill="#76ffda"/><path d="m462.445312 94.324219h-25.117187v333.808593h25.117187c13.007813 0 23.550782-10.546874 23.550782-23.554687v-286.703125c0-13.007812-10.542969-23.550781-23.550782-23.550781zm0 0" fill="#5de1c0"/><path d="m332.09375 121.605469h-152.1875c-7.496094 0-13.574219-6.074219-13.574219-13.570313v-67.277344c0-22.476562 18.285157-40.757812 40.757813-40.757812h97.820312c22.476563 0 40.757813 18.285156 40.757813 40.757812v67.277344c0 7.496094-6.078125 13.570313-13.574219 13.570313zm-138.617188-27.140625h125.046876v-53.707032c0-7.507812-6.109376-13.613281-13.613282-13.613281h-97.820312c-7.503906 0-13.613282 6.105469-13.613282 13.613281zm0 0" fill="#ff914d"/><path d="m440.953125 206.882812h-369.90625c-35.097656 0-63.546875-28.453124-63.546875-63.546874v-45.46875c0-8.816407 7.148438-15.964844 15.964844-15.964844h465.070312c8.816406 0 15.964844 7.148437 15.964844 15.964844v45.46875c0 35.09375-28.449219 63.546874-63.546875 63.546874zm0 0" fill="#5de1c0"/><path d="m488.535156 81.902344h-33.703125v77.398437c0 26.277344-21.300781 47.582031-47.582031 47.582031h33.703125c35.097656 0 63.546875-28.453124 63.546875-63.546874v-45.46875c0-8.816407-7.148438-15.964844-15.964844-15.964844zm0 0" fill="#00c395"/><path d="m314.507812 298.007812h-43.191406v-43.191406c0-1.375-1.117187-2.492187-2.492187-2.492187h-25.648438c-1.375 0-2.492187 1.117187-2.492187 2.492187v43.191406h-43.191406c-1.375 0-2.492188 1.117188-2.492188 2.492188v25.648438c0 1.375 1.117188 2.492187 2.492188 2.492187h43.191406v43.191406c0 1.375 1.117187 2.492188 2.492187 2.492188h25.648438c1.375 0 2.492187-1.117188 2.492187-2.492188v-43.191406h43.191406c1.375 0 2.492188-1.117187 2.492188-2.492187v-25.648438c0-1.375-1.117188-2.492188-2.492188-2.492188zm0 0" fill="#fff"/><path d="m105 287.46875c-8.46875 0-15.332031-6.863281-15.332031-15.332031v-190h30.667969v190c-.003907 8.46875-6.867188 15.332031-15.335938 15.332031zm0 0" fill="#ff914d"/><path d="m128.921875 223.757812h-46.84375c-4.824219 0-8.734375-3.910156-8.734375-8.734374v-18.605469c0-4.824219 3.910156-8.738281 8.734375-8.738281h46.84375c4.824219 0 8.734375 3.914062 8.734375 8.738281v18.605469c0 4.824218-3.910156 8.734374-8.734375 8.734374zm0 0" fill="#ffc943"/><path d="m403 287.46875c-8.46875 0-15.332031-6.863281-15.332031-15.332031v-190h30.667969v190c-.003907 8.46875-6.867188 15.332031-15.335938 15.332031zm0 0" fill="#ff914d"/><path d="m426.921875 223.757812h-46.84375c-4.824219 0-8.734375-3.910156-8.734375-8.734374v-18.605469c0-4.824219 3.910156-8.738281 8.734375-8.738281h46.84375c4.824219 0 8.734375 3.914062 8.734375 8.738281v18.605469c0 4.824218-3.910156 8.734374-8.734375 8.734374zm0 0" fill="#ffc943"/><g fill="#434c54"><path d="m485.996094 216.65625c-4.140625 0-7.5 3.355469-7.5 7.5v180.421875c0 8.851563-7.199219 16.054687-16.050782 16.054687h-412.890624c-8.851563 0-16.050782-7.203124-16.050782-16.054687v-180.421875c0-4.144531-3.359375-7.5-7.5-7.5s-7.5 3.355469-7.5 7.5v180.421875c0 17.125 13.929688 31.054687 31.050782 31.054687h412.890624c17.121094 0 31.050782-13.929687 31.050782-31.054687v-180.421875c0-4.144531-3.355469-7.5-7.5-7.5zm0 0"/><path d="m488.535156 74.402344h-465.070312c-12.9375 0-23.464844 10.527344-23.464844 23.464844v45.46875c0 37.421874 29.089844 68.15625 65.84375 70.835937v.851563c0 8.953124 7.28125 16.234374 16.234375 16.234374h.085937v40.878907c0 12.589843 10.246094 22.832031 22.835938 22.832031s22.832031-10.242188 22.832031-22.832031v-40.878907h1.089844c8.949219 0 16.234375-7.285156 16.234375-16.234374v-.640626h218.683594v.640626c0 8.953124 7.28125 16.234374 16.234375 16.234374h.089843v40.878907c0 12.589843 10.242188 22.832031 22.832032 22.832031 12.59375 0 22.835937-10.242188 22.835937-22.832031v-40.878907h1.089844c8.949219 0 16.234375-7.285156 16.234375-16.234374v-.699219c38.160156-1.171875 68.84375-32.554688 68.84375-70.988281v-45.46875c0-12.9375-10.527344-23.464844-23.464844-23.464844zm-77.703125 105.777344h-15.664062v-90.542969h15.664062zm-298 0h-15.664062v-90.542969h15.667969v90.542969zm-97.832031-36.84375v-45.46875c0-4.667969 3.796875-8.464844 8.464844-8.464844h58.703125v90.777344h-.089844c-8.953125 0-16.234375 7.285156-16.234375 16.234374v2.714844c-28.472656-2.632812-50.84375-26.644531-50.84375-55.792968zm97.832031 128.800781c0 4.320312-3.511719 7.832031-7.832031 7.832031s-7.832031-3.511719-7.832031-7.832031v-40.878907h15.667969v40.878907zm17.324219-57.113281c0 .679687-.554688 1.234374-1.234375 1.234374h-46.84375c-.683594 0-1.234375-.554687-1.234375-1.234374v-18.605469c0-.683594.554688-1.238281 1.234375-1.238281h46.84375c.683594 0 1.234375.554687 1.234375 1.238281zm15-15.640626v-2.964843c0-8.953125-7.28125-16.238281-16.234375-16.238281h-1.085937v-90.777344h252.332031v90.777344h-.089844c-8.953125 0-16.234375 7.285156-16.234375 16.238281v2.964843zm265.675781 72.753907c0 4.320312-3.511719 7.832031-7.832031 7.832031s-7.832031-3.511719-7.832031-7.832031v-40.878907h15.664062zm17.324219-57.113281c0 .679687-.554688 1.234374-1.234375 1.234374h-46.84375c-.683594 0-1.234375-.554687-1.234375-1.234374v-18.605469c0-.683594.554688-1.238281 1.234375-1.238281h46.84375c.683594 0 1.234375.554687 1.234375 1.238281zm68.84375-71.6875c0 30.164062-23.957031 54.824218-53.84375 55.988281v-2.90625c0-8.953125-7.28125-16.238281-16.234375-16.238281h-1.089844v-90.777344h62.703125c4.667969 0 8.464844 3.796875 8.464844 8.464844zm0 0"/></g></svg>