<?xml version="1.0" encoding="iso-8859-1"?>
<!-- Generator: Adobe Illustrator 19.0.0, SVG Export Plug-In . SVG Version: 6.00 Build 0)  -->
<svg version="1.1" id="Capa_1" xmlns="http://www.w3.org/2000/svg" xmlns:xlink="http://www.w3.org/1999/xlink" x="0px" y="0px"
	 viewBox="0 0 512 512" style="enable-background:new 0 0 512 512;" xml:space="preserve">
<path style="fill:#B0EF60;" d="M451.197,512v-69.067c0-85.209-54.605-157.652-130.727-184.279
	c-17.802,13.851-40.161,22.122-64.464,22.122l0,0c-24.303,0-46.661-8.271-64.464-22.122
	c-76.121,26.626-130.727,99.07-130.727,184.279V512H451.197z"/>
<path style="fill:#64DD17;" d="M268.158,491.98l77.975-78.278c12.92-12.971,20.016-30.196,19.98-48.504s-7.198-35.507-20.169-48.425
	c-12.935-12.886-30.113-19.982-48.371-19.982c-1.071,0-2.136,0.031-3.198,0.079c18.383-5.835,34.971-15.739,48.695-28.658
	c-7.287-3.638-14.828-6.842-22.599-9.559c-17.802,13.851-40.161,22.122-64.464,22.122l0,0c-24.303,0-46.661-8.271-64.464-22.122
	c-7.771,2.718-15.312,5.922-22.599,9.559c13.722,12.918,30.31,22.821,48.692,28.657c-1.061-0.048-2.126-0.079-3.195-0.079
	c-18.258,0-35.437,7.097-48.37,19.982c-12.971,12.92-20.135,30.118-20.17,48.426s7.061,35.534,19.982,48.504l77.974,78.278H60.816
	V512h390.381v-20.02H268.158z M256.007,302.796c5.319,0,10.562-0.33,15.711-0.968c-5.582,2.272-10.865,5.277-15.711,8.99
	c-4.848-3.713-10.13-6.718-15.712-8.99C245.443,302.465,250.687,302.796,256.007,302.796z"/>
<path style="fill:#FDD8A8;" d="M256.007,280.774L256.007,280.774c-58.047,0-105.103-47.056-105.103-105.103V84.082h210.205v91.589
	C361.109,233.718,314.053,280.774,256.007,280.774z"/>
<path style="fill:#FDD844;" d="M361.109,84.082H139.61c-12.715,0-23.022-10.307-23.022-23.022V7.507h214.495
	c16.583,0,30.025,13.443,30.025,30.025v46.549H361.109z"/>
<path style="fill:#F8BBD0;" d="M256.007,475.813l-75.943-76.238c-18.911-18.986-18.852-49.708,0.133-68.619
	c18.984-18.911,49.708-18.852,68.619,0.133l7.19,7.218l7.19-7.218c18.911-18.986,49.634-19.045,68.619-0.133
	c18.986,18.911,19.046,49.633,0.133,68.619L256.007,475.813z"/>
<path style="fill:#FDAB08;" d="M116.587,41.04v20.02c0,12.715,10.307,23.022,23.022,23.022h221.499v-20.02H139.61
	C126.896,64.063,116.587,53.755,116.587,41.04z"/>
<g>
	<rect x="150.904" y="84.082" style="fill:#FFC477;" width="210.205" height="20.02"/>
	<path style="fill:#FFC477;" d="M256.007,260.755L256.007,260.755c-58.047,0-105.103-47.056-105.103-105.103v20.02
		c0,58.047,47.056,105.103,105.103,105.103l0,0c58.047,0,105.103-47.056,105.103-105.103v-20.02
		C361.109,213.699,314.053,260.755,256.007,260.755z"/>
</g>
<path style="fill:#F48FB1;" d="M331.949,375.551l-75.943,76.238l-75.943-76.238c-6.358-6.383-10.562-14.095-12.633-22.237
	c-4.077,16.013,0.125,33.703,12.633,46.26l75.943,76.238l75.943-76.238c12.508-12.557,16.71-30.248,12.633-46.26
	C342.511,361.456,338.308,369.168,331.949,375.551z"/>
<rect x="125.379" y="450.94" width="15.015" height="61.06"/>
<rect x="371.62" y="450.94" width="15.015" height="61.06"/>
<rect x="205.958" y="144.141" width="20.02" height="15.015"/>
<rect x="286.036" y="144.141" width="20.02" height="15.015"/>
<path d="M334.729,256.109c20.896-20.455,33.887-48.955,33.887-80.438V37.533l0,0l0,0C368.617,16.836,351.779,0,331.084,0H109.081
	v61.06c0,16.833,13.695,30.53,30.53,30.53h3.786v84.082c0,31.482,12.991,59.983,33.887,80.438
	C102.633,287.561,53.309,361.107,53.309,442.933V512h15.015v-69.067c0-78.369,48.86-148.537,121.994-175.852
	c18.501,13.334,41.192,21.201,65.689,21.201c24.497,0,47.188-7.867,65.69-21.201c73.133,27.315,121.993,97.483,121.993,175.852V512
	h15.015v-69.067C458.705,361.107,409.38,287.561,334.729,256.109z M139.611,76.575c-8.555,0-15.515-6.96-15.515-15.515V15.015
	h206.988c12.416,0,22.518,10.102,22.518,22.518v39.042H139.611z M256.007,273.267c-53.815,0-97.595-43.781-97.595-97.595V91.589
	h195.191v84.082C353.602,229.486,309.82,273.267,256.007,273.267z"/>
<path d="M297.576,309.303c-0.037,0-0.075,0-0.112,0c-14.966,0.028-29.024,5.884-39.586,16.487l-1.872,1.879l-1.872-1.879
	c-10.561-10.603-24.621-16.458-39.587-16.488c-0.038,0-0.074,0-0.111,0c-14.925,0-28.963,5.799-39.539,16.334
	c-10.603,10.561-16.458,24.62-16.488,39.586c-0.029,14.966,5.772,29.047,16.334,39.65l81.261,81.578l81.262-81.578
	c10.562-10.603,16.363-24.684,16.333-39.65c-0.03-14.966-5.885-29.024-16.488-39.586
	C326.537,315.101,312.501,309.303,297.576,309.303z M326.631,394.276l-70.625,70.899l-70.624-70.899
	c-7.732-7.762-11.978-18.07-11.957-29.024c0.021-10.955,4.307-21.247,12.07-28.977c7.743-7.714,18.018-11.958,28.943-11.958
	c0.026,0,0.054,0,0.081,0c10.956,0.021,21.247,4.308,28.978,12.07l12.509,12.557l12.509-12.557
	c7.732-7.762,18.023-12.048,28.977-12.069c0.027,0,0.055,0,0.082,0c10.925,0,21.201,4.244,28.942,11.956
	c7.762,7.732,12.048,18.023,12.07,28.977S334.362,386.514,326.631,394.276z"/>
<path d="M256.007,235.23c-13.894,0-26.263-8.825-30.777-21.959l-14.2,4.88c6.598,19.197,24.673,32.094,44.977,32.094
	c20.304,0,38.379-12.898,44.977-32.094l-14.2-4.88C282.269,226.405,269.901,235.23,256.007,235.23z"/>
<rect x="404.103" y="213.238" transform="matrix(-0.8192 -0.5736 0.5736 -0.8192 622.1715 637.659)" width="15.015" height="15.015"/>
<rect x="386.875" y="237.828" transform="matrix(-0.8192 -0.5736 0.5736 -0.8192 576.7258 672.5104)" width="15.015" height="15.015"/>
<rect x="421.332" y="188.648" transform="matrix(-0.8192 -0.5736 0.5736 -0.8192 667.6172 602.8076)" width="15.015" height="15.015"/>
<rect x="419.083" y="264.846" transform="matrix(0.7071 0.7071 -0.7071 0.7071 317.5284 -221.8744)" width="15.015" height="15.015"/>
<rect x="440.321" y="243.613" transform="matrix(0.7071 -0.7071 0.7071 0.7071 -46.403 390.214)" width="15.015" height="15.015"/>
<rect x="461.54" y="222.38" transform="matrix(-0.7071 0.7071 -0.7071 -0.7071 963.2684 60.7753)" width="15.015" height="15.015"/>
<rect x="75.693" y="188.618" transform="matrix(-0.5736 -0.8191 0.8191 -0.5736 -29.7273 376.7769)" width="15.013" height="15.014"/>
<rect x="92.916" y="213.209" transform="matrix(0.5736 0.8192 -0.8192 0.5736 223.6255 11.8577)" width="15.015" height="15.015"/>
<rect x="110.124" y="237.827" transform="matrix(-0.5736 -0.8192 0.8192 -0.5736 -15.8665 482.4101)" width="15.015" height="15.015"/>
<rect x="77.919" y="264.84" transform="matrix(0.7071 0.7071 -0.7071 0.7071 217.5993 19.3634)" width="15.015" height="15.015"/>
<rect x="56.7" y="243.61" transform="matrix(0.7071 -0.7071 0.7071 0.7071 -158.7608 118.9518)" width="15.015" height="15.015"/>
<rect x="35.446" y="222.388" transform="matrix(-0.7071 0.7071 -0.7071 -0.7071 235.8856 362.0838)" width="15.015" height="15.015"/>
<g>
	<path style="fill:#FFFFFF;" d="M332.614,206.511l-13.922-5.622c3.237-8.019,4.88-16.502,4.88-25.216h15.015
		C338.587,186.321,336.577,196.696,332.614,206.511z"/>
	<path style="fill:#FFFFFF;" d="M189.442,175.672h-15.015v-15.015h15.015V175.672z M189.442,145.642h-15.015v-37.036h15.015V145.642
		z"/>
	<rect x="323.573" y="35.785" style="fill:#FFFFFF;" width="15.015" height="20.02"/>
	<path style="fill:#FFFFFF;" d="M256.007,45.044h-15.015V30.029h15.015V45.044z M225.977,45.044h-15.015V30.029h15.015V45.044z
		 M195.948,45.044h-54.053V30.029h54.053V45.044z"/>
	<path style="fill:#FFFFFF;" d="M98.353,484.974H83.338v-15.015h15.015V484.974z M98.353,454.944H83.338v-12.012
		c0-15.209,2.009-30.35,5.97-45.002l14.494,3.92c-3.617,13.373-5.449,27.196-5.449,41.082V454.944z"/>
	<path style="fill:#FFFFFF;" d="M406.544,396.117c-1.416-4.544-3.058-9.076-4.88-13.47l13.869-5.752
		c1.996,4.814,3.795,9.779,5.345,14.756L406.544,396.117z M395.582,369.671c-2.211-4.21-4.645-8.372-7.231-12.371l12.606-8.154
		c2.832,4.377,5.495,8.935,7.917,13.544L395.582,369.671z M380.032,345.633c-8.271-10.554-17.853-20.019-28.482-28.131l9.109-11.936
		c11.641,8.885,22.136,19.249,31.191,30.805L380.032,345.633z"/>
	<path style="fill:#FFFFFF;" d="M143.397,365.193l-15.015-0.029c0.011-5.492,0.54-10.989,1.573-16.333l14.742,2.849
		C143.843,356.097,143.406,360.643,143.397,365.193z M148.535,338.691l-13.922-5.624c4.346-10.758,10.771-20.416,19.095-28.707
		l10.595,10.639C157.422,321.85,152.118,329.822,148.535,338.691z"/>
	<path style="fill:#FFFFFF;" d="M233.91,421.717l-10.596-10.637l10.637-10.596l10.596,10.637L233.91,421.717z M212.717,400.441
		L196.02,383.68l10.637-10.596l16.697,16.761L212.717,400.441z"/>
	<path style="fill:#FFFFFF;" d="M288.351,411.428l-10.637-10.596l10.596-10.637l10.637,10.596L288.351,411.428z M309.544,390.153
		l-10.637-10.596l6.448-6.474c2.065-2.073,3.202-4.826,3.202-7.751c-0.006-2.956-1.154-5.713-3.233-7.784
		c-2.072-2.065-4.825-3.201-7.751-3.201c-2.943,0-5.707,1.147-7.782,3.232l-10.639-10.594c4.914-4.935,11.455-7.652,18.421-7.652
		c6.927,0,13.442,2.692,18.348,7.579c4.92,4.901,7.637,11.424,7.651,18.369c0,6.977-2.692,13.492-7.579,18.399L309.544,390.153z"/>
</g>
<g>
</g>
<g>
</g>
<g>
</g>
<g>
</g>
<g>
</g>
<g>
</g>
<g>
</g>
<g>
</g>
<g>
</g>
<g>
</g>
<g>
</g>
<g>
</g>
<g>
</g>
<g>
</g>
<g>
</g>
</svg>
