<?xml version="1.0"?>
<svg xmlns="http://www.w3.org/2000/svg" viewBox="0 0 64 64" width="512" height="512"><g id="Family"><path d="M37.01,30.09C37.08,31.15,38.39,32,40,32s2.92-.85,2.99-1.91a5.715,5.715,0,0,1,2.29.89A5.984,5.984,0,0,1,48,36v5H32V36a5.984,5.984,0,0,1,2.72-5.02A5.715,5.715,0,0,1,37.01,30.09Z" style="fill:#bddbff"/><path d="M37.94,27.43A2.76,2.76,0,0,1,38,28a2.971,2.971,0,0,1-.83,2.06l-.16.03a5.715,5.715,0,0,0-2.29.89A3,3,0,0,1,35,25V20a5,5,0,1,1,10,0v5a3,3,0,0,1,.28,5.98,5.715,5.715,0,0,0-2.29-.89l-.16-.03A2.971,2.971,0,0,1,42,28a2.76,2.76,0,0,1,.06-.57A4,4,0,0,0,44,24V22h-.17a2.006,2.006,0,0,1-1.42-.59L41,20l-.83.83A4,4,0,0,1,37.34,22H36v2a3.786,3.786,0,0,0,.21,1.26,3.97,3.97,0,0,0,.96,1.57,3.664,3.664,0,0,0,.77.59Z" style="fill:#bddbff"/><path d="M29,20v2H27.83a2.006,2.006,0,0,1-1.42-.59L25,20l-.83.83A4,4,0,0,1,21.34,22H19V20a5,5,0,0,1,10,0Z" style="fill:#bddbff"/><path d="M26,30a6,6,0,0,1,6,6v5H16V36a6,6,0,0,1,6-6l2,2Z" style="fill:#bddbff"/><path d="M57.456,9.917a17,17,0,0,0-24.042,0L32,11.331,30.586,9.917A17,17,0,1,0,6.544,33.958L31.293,58.707a1,1,0,0,0,1.414,0L57.456,33.958a17,17,0,0,0,0-24.041ZM28,21h-.171a1,1,0,0,1-.708-.293l-1.414-1.414a1,1,0,0,0-1.414,0l-.829.829A3.02,3.02,0,0,1,21.343,21H20V20a4,4,0,0,1,8,0Zm-6.657,2a4.966,4.966,0,0,0,3.535-1.464L25,21.414l.707.707A2.96,2.96,0,0,0,27,22.87V24a3,3,0,0,1-6,0V23ZM24,29a5,5,0,0,0,1-.1v.687l-1,1-1-1V28.9A5,5,0,0,0,24,29Zm-2.376,2.038L23,32.414V36h2V32.414l1.376-1.376A4.991,4.991,0,0,1,31,36v4H30V35H28v5H20V35H18v5H17V36A4.991,4.991,0,0,1,21.624,31.038ZM32,56.586,17.414,42H46.586ZM45.475,29.933a6.72,6.72,0,0,0-2.117-.8A1.957,1.957,0,0,1,43,28c0-.009,0-.019,0-.028a5.011,5.011,0,0,0,1.61-2.05A1,1,0,0,0,45,26a2,2,0,0,1,2,2A1.968,1.968,0,0,1,45.475,29.933ZM43,24a3,3,0,0,1-4.45,2.628.892.892,0,0,0-.113-.076,2.634,2.634,0,0,1-.552-.421,2.982,2.982,0,0,1-.731-1.2A2.749,2.749,0,0,1,37,24V23h.343a4.966,4.966,0,0,0,3.535-1.464L41,21.414l.707.707A2.981,2.981,0,0,0,43,22.885Zm-4.1,4.866a4.649,4.649,0,0,0,2.208,0,3.926,3.926,0,0,0,.7,1.5,2.907,2.907,0,0,1-3.612,0A3.934,3.934,0,0,0,38.9,28.866ZM44,21h-.171a1,1,0,0,1-.708-.293l-1.414-1.414a1,1,0,0,0-1.414,0l-.829.829A3.02,3.02,0,0,1,37.343,21H36V20a4,4,0,0,1,8,0Zm-8.606,4.918a5.018,5.018,0,0,0,1.069,1.619,4.5,4.5,0,0,0,.533.421c0,.014,0,.028,0,.042a1.957,1.957,0,0,1-.358,1.133,6.7,6.7,0,0,0-2.117.8A1.968,1.968,0,0,1,33,28a2,2,0,0,1,2-2A1,1,0,0,0,35.394,25.918Zm-.119,5.894a4.75,4.75,0,0,1,1.1-.537A4.175,4.175,0,0,0,40,33a4.178,4.178,0,0,0,3.628-1.724,4.737,4.737,0,0,1,1.1.541A4.978,4.978,0,0,1,47,36v4H46V35H44v5H36V35H34v5H33V36A4.982,4.982,0,0,1,35.275,31.812Zm20.767.732L49,39.586V36a6.967,6.967,0,0,0-1.793-4.673A3.958,3.958,0,0,0,49,28a4.009,4.009,0,0,0-3-3.874V20a6,6,0,0,0-12,0v4.126A4.009,4.009,0,0,0,31,28a3.96,3.96,0,0,0,1.794,3.328,6.859,6.859,0,0,0-.789,1.079A7.02,7.02,0,0,0,27,29.071v-1.1A4.977,4.977,0,0,0,29,24V23a1,1,0,0,0,1-1V20a6,6,0,0,0-12,0v2a1,1,0,0,0,1,1v1a4.977,4.977,0,0,0,2,3.974v1.1A7.011,7.011,0,0,0,15,36v3.586L7.958,32.544A15,15,0,0,1,29.172,11.331l2.121,2.121a1,1,0,0,0,1.414,0l2.121-2.121A15,15,0,0,1,56.042,32.544Z" style="fill:#3d9ae2"/><path d="M54.255,24.591l1.834.8a10.932,10.932,0,0,0,.687-2.173l-1.959-.4A9,9,0,0,1,54.255,24.591Z" style="fill:#3d9ae2"/><path d="M57,21A11.013,11.013,0,0,0,46,10v2a9.011,9.011,0,0,1,9,9Z" style="fill:#3d9ae2"/></g></svg>
