<svg id="Layer_1" height="512" viewBox="0 0 128 128" width="512" xmlns="http://www.w3.org/2000/svg" data-name="Layer 1"><path d="m92.75 16.5v25.38h-6v-25.38a4 4 0 0 0 -4-4h-37.5a4 4 0 0 0 -4 4v25.38h-6v-25.38a10 10 0 0 1 10-10h37.5a10 10 0 0 1 10 10z" fill="#d7e4ef"/><path d="m6.5 31.5h115v90h-115z" fill="#ff4945"/><circle cx="64" cy="76.5" fill="#e2413d" r="22.5"/><path d="m76.5 71.5h-7.5v-7.5h-10v7.5h-7.5v10h7.5v7.5h10v-7.5h7.5z" fill="#d7e4ef"/><path d="m6.5 31.5h115v12h-115z" fill="#e2413d"/><path d="m6.5 109.5h115v12h-115z" fill="#e2413d"/><g fill="#102434"><path d="m68.438 8.25h4.375a1.75 1.75 0 0 0 0-3.5h-4.375a1.75 1.75 0 0 0 0 3.5z"/><path d="m6.5 84.583a1.75 1.75 0 0 0 1.75-1.75v-6.333a1.75 1.75 0 0 0 -3.5 0v6.333a1.75 1.75 0 0 0 1.75 1.75z"/><path d="m77.641 56.447a24.251 24.251 0 1 0 5.967 5.781 1.75 1.75 0 0 0 -2.828 2.062 20.741 20.741 0 1 1 -5.109-4.95 1.75 1.75 0 0 0 1.971-2.893z"/><path d="m59 90.75h10a1.75 1.75 0 0 0 1.75-1.75v-5.75h5.75a1.75 1.75 0 0 0 1.75-1.75v-10a1.75 1.75 0 0 0 -1.75-1.75h-5.75v-5.75a1.75 1.75 0 0 0 -1.75-1.75h-10a1.75 1.75 0 0 0 -1.75 1.75v5.75h-5.75a1.75 1.75 0 0 0 -1.75 1.75v10a1.75 1.75 0 0 0 1.75 1.75h5.75v5.75a1.75 1.75 0 0 0 1.75 1.75zm-5.75-11v-6.5h5.75a1.75 1.75 0 0 0 1.75-1.75v-5.75h6.5v5.75a1.75 1.75 0 0 0 1.75 1.75h5.75v6.5h-5.75a1.75 1.75 0 0 0 -1.75 1.75v5.75h-6.5v-5.75a1.75 1.75 0 0 0 -1.75-1.75z"/><path d="m121.5 29.75h-27v-13.25a11.763 11.763 0 0 0 -11.75-11.75h-3.687a1.75 1.75 0 0 0 0 3.5h3.687a8.26 8.26 0 0 1 8.25 8.25v13.25h-2.5v-13.25a5.757 5.757 0 0 0 -5.75-5.75h-37.5a5.757 5.757 0 0 0 -5.75 5.75v13.25h-2.5v-13.25a8.26 8.26 0 0 1 8.25-8.25h16.438a1.75 1.75 0 0 0 0-3.5h-16.438a11.763 11.763 0 0 0 -11.75 11.75v13.25h-27a1.75 1.75 0 0 0 -1.75 1.75v37a1.75 1.75 0 0 0 3.5 0v-23.25h111.5v62.5h-25.5a1.75 1.75 0 0 0 0 3.5h25.5v8.5h-111.5v-8.5h75.917a1.75 1.75 0 1 0 0-3.5h-75.917v-16.625a1.75 1.75 0 0 0 -3.5 0v30.375a1.75 1.75 0 0 0 1.75 1.75h115a1.75 1.75 0 0 0 1.75-1.75v-90a1.75 1.75 0 0 0 -1.75-1.75zm-78.5-13.25a2.252 2.252 0 0 1 2.25-2.25h37.5a2.252 2.252 0 0 1 2.25 2.25v13.25h-42zm-34.75 25.25v-8.5h111.5v8.5z"/></g></svg>