<svg id="Layer_1" height="512" viewBox="0 0 128 128" width="512" xmlns="http://www.w3.org/2000/svg" data-name="Layer 1"><path d="m111.19 76.5c-19.27 25.61-47.19 45-47.19 45s-27.92-19.39-47.19-45-16.32-70 18.44-70c12.38 0 21.62 6.75 28.75 15.5 7.12-8.75 16.37-15.5 28.75-15.5 34.76 0 37.71 44.39 18.44 70z" fill="#ff4945"/><g fill="#102434"><path d="m70 78.25a1.75 1.75 0 0 1 -1.656-1.185l-10.024-29.374-6.782 29.209a1.749 1.749 0 0 1 -1.672 1.354h-.033a1.75 1.75 0 0 1 -1.688-1.291l-5.523-20.3-3.084 5.672a1.751 1.751 0 0 1 -1.538.915h-13.808a1.75 1.75 0 1 1 0-3.5h12.767l4.669-8.586a1.75 1.75 0 0 1 3.226.376l4.844 17.8 6.6-28.4a1.75 1.75 0 0 1 3.361-.169l10.021 29.372 6.782-29.205a1.75 1.75 0 0 1 3.393-.063l5.523 20.3 3.084-5.675a1.751 1.751 0 0 1 1.538-.917h13.808a1.75 1.75 0 0 1 0 3.5h-12.767l-4.669 8.586a1.75 1.75 0 0 1 -3.226-.376l-4.846-17.801-6.6 28.408a1.75 1.75 0 0 1 -1.617 1.352c-.024-.002-.054-.002-.083-.002z"/><path d="m123.006 27.563a1.75 1.75 0 0 0 -3.363.967c4.209 14.641.251 33.5-9.85 46.917a196.716 196.716 0 0 1 -24.773 26.714 1.75 1.75 0 0 0 2.356 2.588 200.227 200.227 0 0 0 25.214-27.2c10.729-14.249 14.91-34.342 10.416-49.986z"/><path d="m10.183 19.746a1.752 1.752 0 0 0 2.433-.453c4.96-7.224 12.784-11.043 22.634-11.043 10.293 0 19.25 4.859 27.393 14.85a1.75 1.75 0 0 0 2.714 0c8.14-10 17.1-14.855 27.393-14.855 9.982 0 17.875 3.917 22.827 11.329a1.75 1.75 0 0 0 2.91-1.944c-5.631-8.424-14.531-12.88-25.737-12.88-10.833 0-20.255 4.758-28.75 14.531-8.495-9.773-17.917-14.531-28.75-14.531-11.05 0-19.878 4.344-25.52 12.563a1.75 1.75 0 0 0 .453 2.433z"/><path d="m5.4 33.912a1.746 1.746 0 0 0 2.036-1.412 39.607 39.607 0 0 1 1.225-4.971 1.75 1.75 0 0 0 -3.335-1.062 42.947 42.947 0 0 0 -1.334 5.413 1.75 1.75 0 0 0 1.408 2.032z"/><path d="m76.54 109.55c-5.911 4.933-10.581 8.387-12.539 9.8-5.135-3.714-28.949-21.516-45.794-43.9a59.113 59.113 0 0 1 -11.478-35.826 1.75 1.75 0 0 0 -1.707-1.792 1.732 1.732 0 0 0 -1.792 1.707 62.728 62.728 0 0 0 12.18 38.013c19.215 25.535 47.31 45.19 47.59 45.386a1.751 1.751 0 0 0 2 0c.057-.04 5.824-4.059 13.783-10.7a1.75 1.75 0 1 0 -2.242-2.687z"/></g></svg>