<svg height="474pt" viewBox="0 -21 474.23657 474" width="474pt" xmlns="http://www.w3.org/2000/svg"><path d="m285.109375 104.117188c0 26.511718-21.488281 48-48 48-26.507813 0-48-21.488282-48-48 0-26.507813 21.492187-48 48-48 26.511719 0 48 21.492187 48 48zm0 0" fill="#78b9eb"/><path d="m317.109375 296.117188c0-13.253907-35.816406-24-80-24s-80 10.746093-80 24c0 13.257812 35.816406 24 80 24s80-10.742188 80-24zm0 0" fill="#78b9eb"/><g fill="#1a6fb0"><path d="m473.910156 404.175781-34.664062-208c-1.902344-11.597656-11.9375-20.09375-23.6875-20.058593h-90.449219v16h90.449219c3.910156.003906 7.246094 2.832031 7.886718 6.6875l34.664063 208c.386719 2.320312-.265625 4.691406-1.785156 6.484374-1.519531 1.792969-3.75 2.828126-6.101563 2.828126h-437.113281l40-232h96v-8h-90.445313c-11.746093-.027344-21.773437 8.46875-23.671874 20.058593l-34.664063 208c-1.160156 6.957031.800781 14.074219 5.359375 19.457031 4.558594 5.382813 11.257812 8.484376 18.3125 8.484376h426.222656c7.058594.003906 13.757813-3.097657 18.320313-8.480469 4.5625-5.382813 6.527343-12.5 5.367187-19.460938zm0 0"/><path d="m13.109375 416.117188h10.890625c-2.351562 0-4.582031-1.035157-6.101562-2.828126-1.519532-1.792968-2.171876-4.164062-1.789063-6.484374l34.664063-208c.640624-3.855469 3.976562-6.683594 7.890624-6.6875h90.445313v-8h-96zm0 0"/><path d="m237.109375.117188c-57.414063.054687-103.945313 46.585937-104 104 0 21.921874 14.800781 51.761718 32.882813 80 19.667968 29.972656 41.457031 58.496093 65.199218 85.359374 1.507813 1.679688 3.660156 2.640626 5.917969 2.640626s4.410156-.960938 5.921875-2.640626c23.738281-26.863281 45.527344-55.386718 65.199219-85.359374 18.078125-28.238282 32.878906-58.078126 32.878906-80-.050781-57.414063-46.582031-103.945313-104-104zm52.082031 184c-16.085937 23.589843-33.472656 46.265624-52.082031 67.921874-18.609375-21.65625-35.996094-44.332031-52.078125-67.921874-19.601562-29.359376-35.921875-59.917969-35.921875-80 0-48.601563 39.398437-88 88-88s88 39.398437 88 88c0 20.082031-16.320313 50.640624-35.917969 80zm0 0"/><path d="m237.109375 48.117188c-30.925781 0-56 25.074218-56 56 0 30.929687 25.074219 56 56 56 30.929687 0 56-25.070313 56-56-.035156-30.914063-25.085937-55.964844-56-56zm0 96c-22.089844 0-40-17.90625-40-40 0-22.089844 17.910156-40 40-40 22.09375 0 40 17.910156 40 40 0 22.09375-17.90625 40-40 40zm0 0"/><path d="m221.109375 288.117188h32v16h-32zm0 0"/><path d="m197.109375 288.117188h16v16h-16zm0 0"/><path d="m261.109375 288.117188h16v16h-16zm0 0"/></g></svg>