<?xml version="1.0" encoding="iso-8859-1"?>
<!-- Generator: Adobe Illustrator 19.0.0, SVG Export Plug-In . SVG Version: 6.00 Build 0)  -->
<svg version="1.1" id="Capa_1" xmlns="http://www.w3.org/2000/svg" xmlns:xlink="http://www.w3.org/1999/xlink" x="0px" y="0px"
	 viewBox="0 0 512.001 512.001" style="enable-background:new 0 0 512.001 512.001;" xml:space="preserve">
<path style="fill:#E1EFFB;" d="M331.117,101.895V30.103H176.334v71.791l-36.69,21.787c-8.385,4.979-13.525,14.01-13.525,23.762
	v222.056c0,13.743,11.141,24.884,24.884,24.884h205.444c13.743,0,24.884-11.141,24.884-24.884V147.444
	c0-9.752-5.14-18.783-13.525-23.762L331.117,101.895z"/>
<path style="fill:#CADDEA;" d="M367.807,123.682l-36.69-21.787V30.103h-49.409v71.791l48.868,29.019
	c0.835,0.496,1.347,1.395,1.347,2.366v261.104h24.524c13.743,0,24.884-11.141,24.884-24.884V147.444
	C381.332,137.691,376.192,128.661,367.807,123.682z"/>
<path style="fill:#2C5871;" d="M346.522,73.327H160.929c-6.534,0-11.831-5.297-11.831-11.831V23.508
	c0-6.534,5.297-11.831,11.831-11.831h185.594c6.534,0,11.831,5.297,11.831,11.831v37.988
	C358.353,68.03,353.056,73.327,346.522,73.327z"/>
<path style="fill:#1D4859;" d="M346.522,11.677h-37.244v61.65h37.244c6.534,0,11.831-5.297,11.831-11.831V23.508
	C358.353,16.974,353.056,11.677,346.522,11.677z"/>
<path style="fill:#FFE7CF;" d="M465.643,292.809l-70.25,77.614c-5.983,1.765-11.825,4.512-17.87,5.834
	c-0.677-3.385,1.327-7.976,0.778-11.24c-3.269-19.44-16.45-27.483-35.979-28.852c-24.371,1.454-60.9,4.299-82.401,7.208
	c-21.5,2.909-45.043-4.156-55.016-6.824c-8.983-2.415-2.078-0.653-2.078-0.653c-27.514-8.788-49.207-11.304-77.779-6.824
	c-16.191,2.539-39.581,7.146-57.407,9.954V469.44c0,0,100.115,15.934,144.363,28.273c13.167,3.672,27.101,3.458,40.15-0.615
	c48.175-15.037,129.135-37.195,158.016-51.775c6.133-1.003,29.736-25.588,29.736-25.588c17.971-32.182,41.462-65.699,61.634-97.124
	c7.201-11.217-0.395-24.968-4.355-29.601C492.376,287.384,475.516,282.025,465.643,292.809z"/>
<path style="fill:#F4D5BA;" d="M490.958,288.797c-17.455,26.57-36.149,54.173-51.053,80.861c0,0-23.603,24.585-29.736,25.589
	c-28.881,14.58-109.841,36.737-158.016,51.775c-13.048,4.073-26.983,4.286-40.15,0.615c-44.249-12.34-144.363-28.273-144.363-28.273
	v50.076c0,0,100.115,15.934,144.363,28.273c13.167,3.672,27.101,3.458,40.15-0.615c48.175-15.037,129.135-37.195,158.016-51.775
	c6.133-1.003,29.736-25.589,29.736-25.589c17.971-32.182,41.462-65.699,61.634-97.124c7.201-11.217-0.395-24.968-4.355-29.601
	C495.875,291.478,493.669,289.969,490.958,288.797z"/>
<path style="fill:#24D9DE;" d="M72.122,490.595H14.703c-3.972,0-7.192-3.22-7.192-7.192V329.767c0-3.972,3.22-7.192,7.192-7.192
	h57.419c3.972,0,7.192,3.22,7.192,7.192v153.636C79.314,487.375,76.094,490.595,72.122,490.595z"/>
<path style="fill:#11B9C1;" d="M72.122,322.575H30.573v168.019h41.549c3.972,0,7.192-3.22,7.192-7.192V329.767
	C79.314,325.795,76.094,322.575,72.122,322.575z"/>
<rect x="126.12" y="159.151" style="fill:#65DB57;" width="255.21" height="152.07"/>
<rect x="331.92" y="159.151" style="fill:#01C61B;" width="49.41" height="152.07"/>
<path style="fill:#FFFFFF;" d="M304.192,222.374h-35.473v-35.473c0-1.13-0.916-2.047-2.047-2.047h-21.063
	c-1.13,0-2.047,0.916-2.047,2.047v35.473H208.09c-1.13,0-2.047,0.916-2.047,2.047v21.063c0,1.13,0.916,2.047,2.047,2.047h35.473
	v35.473c0,1.13,0.916,2.047,2.047,2.047h21.063c1.13,0,2.047-0.916,2.047-2.047v-35.473h35.473c1.13,0,2.047-0.916,2.047-2.047
	v-21.063C306.239,223.291,305.322,222.374,304.192,222.374z"/>
<path d="M183.995,28.104c-4.148,0-7.511,3.363-7.511,7.511v13.774c0,4.149,3.363,7.511,7.511,7.511s7.511-3.363,7.511-7.511V35.615
	C191.506,31.466,188.143,28.104,183.995,28.104z"/>
<path d="M218.86,28.104c-4.148,0-7.511,3.363-7.511,7.511v13.774c0,4.149,3.363,7.511,7.511,7.511s7.511-3.363,7.511-7.511V35.615
	C226.371,31.466,223.008,28.104,218.86,28.104z"/>
<path d="M253.726,28.104c-4.148,0-7.511,3.363-7.511,7.511v13.774c0,4.149,3.363,7.511,7.511,7.511s7.511-3.363,7.511-7.511V35.615
	C261.237,31.466,257.874,28.104,253.726,28.104z"/>
<path d="M288.591,28.104c-4.148,0-7.511,3.363-7.511,7.511v13.774c0,4.149,3.363,7.511,7.511,7.511c4.148,0,7.511-3.363,7.511-7.511
	V35.615C296.102,31.466,292.739,28.104,288.591,28.104z"/>
<path d="M323.457,28.104c-4.148,0-7.511,3.363-7.511,7.511v13.774c0,4.149,3.363,7.511,7.511,7.511c4.148,0,7.511-3.363,7.511-7.511
	V35.615C330.968,31.466,327.605,28.104,323.457,28.104z"/>
<path d="M502.894,288.129c-4.501-5.265-13.314-8.901-21.932-9.048c-8.198-0.108-15.621,2.934-20.888,8.687L391.2,363.863
	c-0.795,0.259-1.579,0.531-2.357,0.804l0,0V147.444l0,0c0-12.341-6.591-23.921-17.202-30.221l-33.013-19.604v-16.78h7.894
	c10.665,0,19.342-8.676,19.342-19.342V23.508c0-10.666-8.677-19.342-19.342-19.342H160.929c-10.665,0-19.342,8.676-19.342,19.342
	v37.989c0,10.666,8.677,19.342,19.342,19.342h7.894v16.78l-33.013,19.603c-10.611,6.301-17.202,17.881-17.202,30.222l0,0v175.064
	l0,0c-6.834,1.138-14.481,2.515-22.493,3.958c-3.122,0.562-6.264,1.128-9.383,1.685c-0.808-7.349-7.049-13.087-14.61-13.087H14.703
	C6.596,315.064,0,321.659,0,329.766v153.637c0,8.107,6.596,14.703,14.703,14.703h57.419c8.107,0,14.703-6.596,14.703-14.703v-3.186
	c31.834,5.371,91.79,15.982,123.16,24.73c6.907,1.926,13.984,2.888,21.058,2.888c7.869,0,15.733-1.191,23.349-3.568
	c12.024-3.753,26.077-7.946,40.956-12.384c44.443-13.258,94.746-28.264,117.397-39.452c3.003-0.866,7.861-3.634,19.74-14.808
	c6.729-6.33,12.593-12.431,12.84-12.687c0.444-0.463,0.827-0.98,1.14-1.54c12.541-22.458,27.964-45.823,42.879-68.419
	c6.17-9.346,12.549-19.011,18.518-28.309C516.662,312.957,509.713,296.109,502.894,288.129z M71.802,483.083h-56.78V330.087h56.78
	V483.083z M160.929,65.816c-2.382,0-4.319-1.938-4.319-4.319V23.508c0-2.382,1.938-4.319,4.319-4.319h185.594
	c2.382,0,4.319,1.938,4.319,4.319v37.989c0,2.382-1.938,4.319-4.319,4.319C346.523,65.816,160.929,65.816,160.929,65.816z
	 M133.631,147.444c0-7.066,3.774-13.697,9.85-17.305l36.689-21.787c2.279-1.353,3.676-3.808,3.676-6.458V80.839h139.76v21.056
	c0,2.651,1.397,5.105,3.676,6.458l36.69,21.788c6.075,3.607,9.849,10.237,9.849,17.304v4.192h-240.19L133.631,147.444
	L133.631,147.444z M133.631,166.659h240.19v137.044h-240.19L133.631,166.659L133.631,166.659z M133.631,318.726h240.19v21.464
	c-7.272-6.722-17.613-10.582-30.973-11.518c-0.325-0.024-0.649-0.024-0.973-0.005c-26.074,1.556-61.838,4.405-82.961,7.262
	c-18.501,2.507-39.622-3.25-49.773-6.014c-0.827-0.226-1.594-0.434-2.286-0.62c-0.352-0.094-0.675-0.182-0.972-0.261
	c-0.249-0.111-0.506-0.208-0.771-0.293c-26.469-8.454-47.335-10.982-71.482-8.378L133.631,318.726L133.631,318.726z
	 M495.218,318.553c-5.917,9.217-12.269,18.841-18.413,28.149c-14.879,22.541-30.26,45.842-42.981,68.519
	c-9.58,9.915-21.738,21.142-25.356,22.786c-0.583,0.135-1.148,0.34-1.684,0.61c-21.049,10.626-71.351,25.632-115.732,38.871
	c-14.925,4.453-29.023,8.658-41.137,12.44c-11.689,3.65-24.101,3.839-35.894,0.549c-32.873-9.167-95.831-20.227-127.196-25.494
	V343.392c3.958-0.701,7.97-1.423,11.953-2.141c10.054-1.811,19.551-3.523,27.432-4.758c25.179-3.946,44.716-2.488,70.799,5.457
	c0.649,0.326,1.395,0.614,2.251,0.851c0.721,0.201,1.894,0.519,3.703,1.005c0.681,0.182,1.426,0.385,2.229,0.604
	c11.106,3.024,34.213,9.32,55.735,6.407c20.604-2.787,55.595-5.579,81.344-7.124c17.622,1.343,26.19,8.111,28.612,22.498
	c0.04,0.501-0.216,1.952-0.385,2.913c-0.064,0.364-0.13,0.745-0.194,1.134c-31.354,7.157-65.987,12.016-99.544,16.721
	c-13.541,1.898-27.534,3.86-40.803,5.913c-2.312-0.183-2.38-1.162-2.429-1.891c-0.285-4.139-3.87-7.252-8.009-6.978
	c-4.139,0.285-7.263,3.871-6.978,8.009c0.641,9.305,7.741,15.698,17.67,15.907c0.053,0.001,0.106,0.002,0.158,0.002
	c0.386,0,0.771-0.029,1.153-0.089c13.379-2.077,26.954-3.981,41.325-5.995c35.858-5.028,72.937-10.227,106.396-18.257
	c0.098-0.023,0.19-0.057,0.286-0.084c3.92-0.893,7.602-2.227,11.161-3.528c2.373-0.867,4.615-1.686,6.829-2.34
	c1.325-0.39,2.517-1.139,3.444-2.163l70.221-77.583c2.358-2.575,5.548-3.86,9.523-3.779c5.334,0.091,9.712,2.553,10.767,3.787
	C493.526,300.29,500.173,310.833,495.218,318.553z"/>
<path d="M304.192,214.863H276.23v-27.961c0-5.271-4.288-9.559-9.558-9.559h-21.063c-5.27,0-9.558,4.288-9.558,9.559v27.961H208.09
	c-5.27,0-9.558,4.288-9.558,9.559v21.063c0,5.27,4.288,9.558,9.558,9.558h27.962v27.962c0,5.27,4.288,9.558,9.558,9.558h21.063
	c5.27,0,9.558-4.288,9.558-9.558v-27.962h27.962c5.27,0,9.558-4.288,9.558-9.558v-21.064
	C313.75,219.15,309.463,214.863,304.192,214.863z M298.727,240.019h-30.008c-4.148,0-7.511,3.363-7.511,7.511v30.008h-10.134
	v-30.007c0-4.149-3.363-7.511-7.511-7.511h-30.008v-10.134h30.008c4.148,0,7.511-3.363,7.511-7.511v-30.008h10.134v30.008
	c0,4.149,3.363,7.511,7.511,7.511h30.008V240.019z"/>
<g>
</g>
<g>
</g>
<g>
</g>
<g>
</g>
<g>
</g>
<g>
</g>
<g>
</g>
<g>
</g>
<g>
</g>
<g>
</g>
<g>
</g>
<g>
</g>
<g>
</g>
<g>
</g>
<g>
</g>
</svg>
