<?xml version="1.0"?>
<svg xmlns="http://www.w3.org/2000/svg" xmlns:xlink="http://www.w3.org/1999/xlink" version="1.1" id="Capa_1" x="0px" y="0px" viewBox="0 0 496 496" style="enable-background:new 0 0 496 496;" xml:space="preserve" width="512px" height="512px" class=""><g transform="matrix(0.904382 0 0 0.904382 23.7132 23.7132)"><g>
	<g>
		<g>
			<rect x="168" y="168" width="16" height="16" data-original="#000000" class="active-path" data-old_color="#000000" fill="#FF0000"/>
			<rect x="312" y="168" width="16" height="16" data-original="#000000" class="active-path" data-old_color="#000000" fill="#FF0000"/>
			<path d="M476.992,70.048c-21.936-3.656-42.568-13.112-59.656-27.36l-3.344-2.784C401.672,29.656,386.064,24,370.04,24     c-28.464,0-54.296,17.904-64.288,44.552l-0.816,2.168c-2.912,7.776-9.304,13.624-16.984,16.048     c0.008-2.712,0.048-5.44,0.048-8.152V74.48c5.048-7.6,8-16.696,8-26.48c0-26.472-21.528-48-48-48s-48,21.528-48,48     c0,9.784,2.952,18.88,8,26.48v4.136c0,2.712,0.056,5.44,0.064,8.152c-7.688-2.424-14.088-8.272-17-16.048l-0.808-2.176     C180.256,41.904,154.424,24,125.96,24C109.936,24,94.328,29.656,82,39.912l-3.336,2.784C61.576,56.944,40.944,66.4,19,70.056     C7.992,71.888,0,81.328,0,92.488c0,10.072,6.608,18.792,16.152,21.688c0.76,12.032,7.688,22.688,18.584,28.136l1.688,0.84     c3.808,1.904,7.792,3.392,11.848,4.696c1.272,11.344,8.08,21.272,18.472,26.464c12.68,6.336,26.864,9.688,41.032,9.688h8.552     c-2.792,7.184-4.328,14.856-4.328,22.624v1.776c0,27.672,10.776,53.688,30.344,73.256c14.912,14.92,33.592,24.68,54.048,28.496     C183.632,318.848,176,333.2,176,348.68c0,14.6,6.976,28.552,18.656,37.312l9.384,7.032l-7.272,4.848     c-13,8.664-20.768,23.176-20.768,38.808c0,14.6,6.976,28.552,18.656,37.312L224,496v-16c0-8.32,1.544-16.416,4.44-23.944     c0.896,8.304,1.744,16.616,2.704,24.92C232.136,489.536,239.376,496,248,496c8.624,0,15.864-6.464,16.856-15.024     c2.608-22.568,5.032-45.672,7.232-68.76l27.144-18.096c13-8.656,20.768-23.168,20.768-38.8c0-14.6-6.976-28.552-18.656-37.312     l-9.056-6.792c23.152-2.68,44.84-13.032,61.368-29.56C373.224,262.088,384,236.072,384,208.4v-1.776     c0-7.768-1.536-15.44-4.328-22.624h8.552c14.168,0,28.352-3.352,41.04-9.688c10.392-5.192,17.192-15.12,18.464-26.464     c4.048-1.296,8.04-2.792,11.848-4.696l1.688-0.84c10.896-5.448,17.824-16.104,18.584-28.136     C489.392,111.288,496,102.56,496,92.488C496,81.328,488.008,71.888,476.992,70.048z M248,16c17.648,0,32,14.352,32,32     s-14.352,32-32,32s-32-14.352-32-32S230.352,16,248,16z M271.936,89.544c-0.168,52.288-1.48,105.104-3.992,157.216     c-4.784,13.192-13.616,24.744-25.656,32.768l-11.944,7.96c-3.928-65.72-6.048-132.136-6.256-197.928     C231.136,93.632,239.288,96,248,96C256.72,96,264.88,93.624,271.936,89.544z M212.536,255.896     c-11.536-0.528-22.696-5.368-30.88-13.552c-8.68-8.68-13.656-20.696-13.656-32.968V208h24c6.792,0,13.064-2.16,18.256-5.776     C210.88,220.136,211.632,238.032,212.536,255.896z M107.776,168c-11.696,0-23.416-2.768-33.88-8     c-3.696-1.848-6.392-4.896-8.064-8.472C68.504,151.792,71.2,152,73.888,152h4.216c12.928,0,25.88-3.056,37.472-8.84l-7.16-14.312     C99.056,133.52,88.568,136,78.112,136h-4.216c-10.464,0-20.944-2.48-30.312-7.16L41.888,128c-4.2-2.096-7.2-5.72-8.72-9.96     C40.712,119.304,48.352,120,56,120c11.264,0,22.52-1.392,33.464-4.128l16.48-4.12l-3.872-15.512l-16.48,4.12     c-19.344,4.832-39.824,4.832-59.168,0l-5.312-1.328C18.104,98.272,16,95.584,16,92.488c0-3.312,2.376-6.112,5.632-6.656     c24.744-4.12,48.008-14.792,67.28-30.84l3.328-2.784C101.696,44.336,113.672,40,125.96,40c21.832,0,41.64,13.736,49.304,34.168     l0.816,2.184c5.28,14.056,17.68,24.12,32.12,26.848c0.104,15.216,0.288,30.432,0.592,45.688C203.896,145.84,198.176,144,192,144     h-17.376c-16.488,0-32.624,6.688-44.28,18.344c-1.776,1.776-3.392,3.688-4.936,5.656H107.776z M153.656,270.344     C137.112,253.8,128,231.8,128,208.4v-1.776c0-12.272,4.976-24.288,13.656-32.968S162.352,160,174.624,160H192     c8.816,0,16,7.176,16,16c0,8.824-7.184,16-16,16h-40v17.376c0,16.488,6.688,32.624,18.344,44.28     c11.376,11.376,27.024,17.968,43.096,18.288c0.44,8.008,0.856,16.032,1.352,24.016     C191.696,295.752,170.008,286.696,153.656,270.344z M248.968,479.136c-0.128,0.984-1.816,0.984-1.936,0     c-1.72-14.936-3.328-29.872-4.856-44.824c3.44-3.656,7.264-6.992,11.544-9.84l1.16-0.768     C253.024,442.328,251.072,460.92,248.968,479.136z M304,355.32c0,10.272-5.104,19.8-13.64,25.496l-45.512,30.344     c-18.84,12.56-31.488,32.04-35.488,53.864l-5.104-3.832C196.576,455.44,192,446.272,192,436.68c0-10.272,5.104-19.8,13.64-25.496     l11.968-7.976L224,408v-9.056l27.152-18.104c10.792-7.2,19.632-16.952,26-28.232l0.128,0.008     c0.008-0.088,0.016-0.176,0.024-0.264c0.592-1.056,1.288-2.04,1.832-3.112c3.552-7.032,5.936-14.608,7.36-22.368l5.24,3.928     C299.424,336.56,304,345.728,304,355.32z M235,355.432c4.856-7.392,11.12-13.904,18.72-18.968l9.152-6.104     c-0.416,5.728-0.808,11.456-1.256,17.184c-4.992,7.904-11.536,14.776-19.336,19.976l-5.952,3.976     C235.88,366.144,235.424,360.792,235,355.432z M290.36,292.816l-45.512,30.344c-18.84,12.56-31.488,32.04-35.488,53.864     l-5.104-3.832C196.576,367.44,192,358.272,192,348.68c0-10.272,5.104-19.8,13.64-25.496l45.512-30.344     C270,280.28,282.64,260.8,286.64,238.976l5.104,3.824c7.68,5.76,12.256,14.928,12.256,24.52     C304,277.592,298.896,287.12,290.36,292.816z M313.24,243.32c-3.064-5.104-7.048-9.672-11.896-13.312l-16.16-12.12     c0.208-5.208,0.424-10.408,0.608-15.632c5.176,3.6,11.44,5.744,18.208,5.744h24v1.376c0,12.272-4.976,24.288-13.656,32.968     C314,242.688,313.6,242.984,313.24,243.32z M368,208.4c0,23.4-9.112,45.4-25.656,61.944     c-7.984,7.984-17.416,14.224-27.664,18.584c3.432-6.568,5.32-13.944,5.32-21.608c0-2.744-0.32-5.44-0.8-8.104     c2.272-1.72,4.448-3.552,6.456-5.56C337.312,242,344,225.856,344,209.376V192h-40c-8.824,0-16-7.176-16-16     c0-8.824,7.176-16,16-16h17.376c12.272,0,24.288,4.976,32.968,13.656S368,194.352,368,206.624V208.4z M474.896,99.032     l-5.312,1.328c-19.344,4.832-39.832,4.832-59.168,0l-16.48-4.12l-3.872,15.512l16.48,4.12C417.48,118.608,428.736,120,440,120     c7.648,0,15.288-0.696,22.832-1.96c-1.528,4.248-4.52,7.864-8.72,9.96l-1.688,0.84c-9.368,4.68-19.856,7.16-30.312,7.16h-4.216     c-10.464,0-20.944-2.48-30.312-7.16l-7.16,14.312c11.584,5.792,24.536,8.848,37.464,8.848h4.216c2.696,0,5.384-0.208,8.064-0.472     c-1.672,3.576-4.368,6.624-8.064,8.472c-10.472,5.232-22.184,8-33.88,8h-17.632c-1.544-1.968-3.16-3.88-4.936-5.656     C354,150.688,337.856,144,321.376,144H304c-6.168,0-11.88,1.832-16.768,4.864c0.304-15.248,0.504-30.48,0.616-45.688     c14.424-2.744,26.8-12.8,32.072-26.84l0.816-2.168C328.4,53.736,348.208,40,370.04,40c12.288,0,24.264,4.336,33.712,12.208     l3.336,2.784c19.272,16.056,42.536,26.728,67.272,30.84c3.264,0.552,5.64,3.352,5.64,6.656     C480,95.584,477.896,98.272,474.896,99.032z" data-original="#000000" class="active-path" data-old_color="#000000" fill="#FF0000"/>
		</g>
	</g>
</g></g> </svg>
