<svg viewBox="-40 0 511 511.99965" xmlns="http://www.w3.org/2000/svg"><path d="m200.570312 220.054688c-.734374 0-1.480468-.109376-2.21875-.335938-3.957031-1.226562-6.171874-5.425781-4.949218-9.382812.808594-2.617188 1.484375-5.316407 2.003906-8.019532.027344-.148437.058594-.296875.097656-.441406l33.054688-129.636719c2.378906-12.984375-5.757813-25.554687-18.605469-28.679687l-15.464844-3.769532c-4.027343-.976562-6.492187-5.035156-5.515625-9.058593.980469-4.027344 5.027344-6.496094 9.0625-5.515625l15.46875 3.765625c20.691406 5.039062 33.761719 25.371093 29.746094 46.289062-.027344.148438-.058594.292969-.097656.441407l-33.058594 129.65625c-.617188 3.167968-1.410156 6.328124-2.359375 9.398437-.996094 3.21875-3.960937 5.289063-7.164063 5.289063zm0 0" fill="#aab2b9"/><path d="m43.90625 220.058594c-3.203125 0-6.167969-2.066406-7.164062-5.285156-.949219-3.078126-1.746094-6.242188-2.359376-9.410157l-33.0625-129.65625c-.035156-.144531-.066406-.289062-.097656-.4375-4.011718-20.917969 9.054688-41.25 29.75-46.289062l15.464844-3.765625c4.027344-.980469 8.082031 1.488281 9.0625 5.511718.980469 4.023438-1.488281 8.082032-5.511719 9.0625l-15.46875 3.765626c-12.847656 3.128906-20.980469 15.699218-18.601562 28.679687l33.054687 129.636719c.035156.148437.070313.292968.097656.441406.519532 2.703125 1.191407 5.402344 2.003907 8.027344 1.222656 3.957031-.992188 8.15625-4.949219 9.378906-.738281.230469-1.484375.339844-2.21875.339844zm0 0" fill="#aab2b9"/><path d="m48.25 32.855469c1.394531 12.003906 20.410156 19.65625 32.414062 18.261719 12.003907-1.398438 20.601563-12.257813 19.207032-24.261719-1.394532-12.003907-12.257813-20.601563-24.261719-19.207031-12.003906 1.394531-28.753906 13.203124-27.359375 25.207031zm0 0" fill="#ffaa16"/><path d="m196.222656 32.855469c-1.394531 12.003906-20.40625 19.65625-32.410156 18.261719-12.003906-1.394532-20.605469-12.257813-19.210938-24.261719 1.394532-12.003907 12.257813-20.605469 24.261719-19.207031 12.003907 1.394531 28.753907 13.203124 27.359375 25.207031zm0 0" fill="#ffaa16"/><path d="m229.71875 504.5c-66.5625 0-120.71875-54.15625-120.71875-120.722656l.003906-98.65625c0-1.449219-1.046875-2.6875-2.472656-2.925782-30.003906-5.023437-56.011719-24.300781-69.570312-51.570312-2.003907-4.035156-1.800782-8.75.546874-12.621094 2.378907-3.917968 6.523438-6.3125 11.082032-6.398437h.242187c4.960938 0 9.664063 2.96875 11.980469 7.570312 11.769531 23.359375 35.304688 37.871094 61.425781 37.871094 25.921875 0 50.117188-15.03125 61.632813-38.292969 2.152344-4.34375 6.761718-7.148437 11.746094-7.148437 4.625 0 8.84375 2.351562 11.285156 6.289062 2.410156 3.894531 2.640625 8.652344.613281 12.730469-13.558594 27.269531-39.566406 46.546875-69.566406 51.570312l-.476563.046876c-1.511718.15625-2.664062 1.429687-2.664062 2.953124l.042968 98.5625c0 52.332032 42.558594 94.894532 94.871094 94.894532h34.742188c52.394531 0 94.871094-42.476563 94.871094-94.875v-222.890625h25.847656v222.890625c0 66.671875-54.046875 120.722656-120.71875 120.722656zm0 0" fill="#5de1c0"/><path d="m424.820312 158.488281c0 29.894531-24.230468 54.125-54.125 54.125-29.890624 0-54.125-24.230469-54.125-54.125 0-29.890625 24.234376-54.125 54.125-54.125 29.894532 0 54.125 24.234375 54.125 54.125zm0 0" fill="#ffaa16"/><path d="m375.691406 104.601562v107.773438c27.550782-2.523438 49.132813-25.679688 49.132813-53.886719-.003907-28.207031-21.582031-51.363281-49.132813-53.886719zm0 0" fill="#ff914d"/><path d="m391.78125 158.488281c0 11.644531-9.4375 21.085938-21.085938 21.085938-11.644531 0-21.085937-9.441407-21.085937-21.085938s9.441406-21.085937 21.085937-21.085937c11.648438 0 21.085938 9.441406 21.085938 21.085937zm0 0" fill="#e1effb"/><g fill="#434c54"><path d="m264.460938 512h-34.742188c-70.699219 0-128.222656-57.519531-128.222656-128.222656l.003906-34.402344c0-4.144531 3.355469-7.5 7.5-7.5 4.140625 0 7.5 3.355469 7.5 7.5l-.003906 34.402344c0 62.429687 50.792968 113.21875 113.222656 113.21875h34.742188c62.429687 0 113.222656-50.789063 113.222656-113.21875v-140.140625c0-4.140625 3.355468-7.5 7.5-7.5 4.140625 0 7.5 3.359375 7.5 7.5v140.140625c0 70.703125-57.523438 128.222656-128.222656 128.222656zm0 0"/><path d="m264.460938 486.148438h-34.742188c-56.445312 0-102.371094-45.929688-102.371094-102.390626l-.039062-98.5625c0-5.390624 4.039062-9.867187 9.398437-10.414062l.230469-.023438c27.542969-4.6875 51.402344-22.417968 63.859375-47.472656.875-1.761718.777344-3.746094-.273437-5.441406-1.078126-1.742188-2.867188-2.742188-4.90625-2.742188-2.125 0-4.144532 1.199219-5.027344 2.980469-12.773438 25.792969-39.601563 42.460938-68.351563 42.460938-28.96875 0-55.074219-16.089844-68.125-41.996094-1.039062-2.0625-3.160156-3.445313-5.28125-3.445313h-.164062c-1.910157.039063-3.710938 1.082032-4.746094 2.789063-1.023437 1.683594-1.113281 3.648437-.246094 5.390625 12.492188 25.125 36.453125 42.886719 64.089844 47.515625 5.066406.847656 8.738281 5.1875 8.738281 10.320313v29.507812c0 4.140625-3.359375 7.5-7.5 7.5 0 0 0 0-.003906 0-4.140625 0-7.496094-3.359375-7.496094-7.5v-25.742188c-30.757812-6.351562-57.207031-26.65625-71.257812-54.921874-3.15625-6.34375-2.839844-13.765626.847656-19.847657 3.71875-6.128906 10.207031-9.871093 17.355469-10.007812l.304687-.003907c7.84375 0 15.175782 4.59375 18.757813 11.699219 10.484375 20.8125 31.457031 33.746094 54.726562 33.746094 23.09375 0 44.648438-13.394531 54.914063-34.121094 3.40625-6.878906 10.652344-11.324219 18.464844-11.324219 7.238281 0 13.84375 3.679688 17.660156 9.84375 3.789062 6.113282 4.144531 13.597657.953125 20.019532-14.152344 28.460937-40.882813 48.855468-71.921875 55.054687l.039062 94.734375c0 48.191406 39.195313 87.394532 87.375 87.394532h34.738282c48.175781 0 87.371093-39.195313 87.371093-87.371094v-139.367188c0-4.140625 3.359375-7.5 7.5-7.5 4.144531 0 7.5 3.359375 7.5 7.5v139.367188c0 56.449218-45.921875 102.371094-102.371093 102.371094zm0 0"/><path d="m370.695312 220.113281c-33.980468 0-61.625-27.644531-61.625-61.625s27.644532-61.625 61.625-61.625c33.980469 0 61.625 27.644531 61.625 61.625s-27.644531 61.625-61.625 61.625zm0-108.25c-25.707031 0-46.625 20.917969-46.625 46.625 0 25.710938 20.917969 46.625 46.625 46.625 25.710938 0 46.625-20.914062 46.625-46.625 0-25.707031-20.914062-46.625-46.625-46.625zm0 0"/><path d="m370.695312 187.074219c-15.761718 0-28.585937-12.824219-28.585937-28.585938s12.824219-28.585937 28.585937-28.585937c15.765626 0 28.585938 12.824218 28.585938 28.585937s-12.820312 28.585938-28.585938 28.585938zm0-42.171875c-7.492187 0-13.585937 6.09375-13.585937 13.585937 0 7.492188 6.09375 13.585938 13.585937 13.585938 7.492188 0 13.585938-6.09375 13.585938-13.585938 0-7.492187-6.09375-13.585937-13.585938-13.585937zm0 0"/><path d="m77.757812 58.777344c-14.808593 0-35.082031-8.929688-36.957031-25.054688-2.039062-17.546875 19.078125-31.796875 33.941407-33.523437 16.105468-1.867188 30.707031 9.699219 32.578124 25.792969 1.867188 16.089843-9.699218 30.707031-25.792968 32.574218-1.203125.140625-2.46875.210938-3.769532.210938zm-22.058593-26.789063c.714843 6.140625 14.449219 12.796875 24.097656 11.679688 7.875-.917969 13.539063-8.070313 12.625-15.945313-.917969-7.878906-8.082031-13.53125-15.945313-12.625-9.648437 1.121094-21.488281 10.75-20.777343 16.890625zm0 0"/><path d="m166.800781 58.785156c-1.320312 0-2.609375-.074218-3.855469-.21875-16.09375-1.867187-27.660156-16.484375-25.792968-32.574218 1.871094-16.09375 16.488281-27.664063 32.578125-25.792969 7.519531.875 15.992187 4.734375 22.65625 10.332031 8.214843 6.890625 12.222656 15.128906 11.285156 23.191406s-6.726563 15.160156-16.300781 19.988282c-6.484375 3.265624-13.917969 5.074218-20.570313 5.074218zm-.472656-43.785156c-7.195313 0-13.425781 5.40625-14.273437 12.722656-.917969 7.875 4.746093 15.03125 12.625 15.945313 4.585937.535156 10.84375-.785157 15.941406-3.355469 4.777344-2.40625 7.828125-5.519531 8.152344-8.320312 0 0 0 0 0-.003907.324218-2.800781-1.929688-6.53125-6.027344-9.96875-4.375-3.671875-10.164063-6.390625-14.75-6.921875-.558594-.066406-1.117188-.097656-1.667969-.097656zm0 0"/></g></svg>