<svg viewBox="1 1 511.99977 511.99977" xmlns="http://www.w3.org/2000/svg"><path d="m7.5 512c-1.917969 0-3.839844-.730469-5.304688-2.195312-2.925781-2.929688-2.925781-7.679688 0-10.609376l100.332032-100.332031c2.933594-2.925781 7.679687-2.925781 10.609375 0 2.929687 2.929688 2.929687 7.679688 0 10.609375l-100.332031 100.328125c-1.464844 1.464844-3.386719 2.199219-5.304688 2.199219zm0 0" fill="#aab2b9"/><path d="m119.945312 416.28125-24.222656-24.226562c-4.101562-4.101563-4.101562-10.75 0-14.851563l43.980469-43.980469 39.074219 39.074219-43.984375 43.984375c-4.097657 4.097656-10.746094 4.097656-14.847657 0zm0 0" fill="#e2ebf9"/><path d="m428.105469 59.089844 24.800781 24.800781-75.835938 75.835937-24.800781-24.800781zm0 0" fill="#aab2b9"/><path d="m179.050781 418.769531-85.820312-85.820312c-3.730469-3.734375-3.730469-9.785157 0-13.515625l226.144531-226.144532c3.730469-3.730468 9.785156-3.730468 13.515625 0l85.820313 85.820313c3.734374 3.734375 3.734374 9.785156 0 13.515625l-226.144532 226.144531c-3.730468 3.730469-9.78125 3.730469-13.515625 0zm0 0" fill="#fff"/><path d="m418.710938 179.109375-28.660157-28.660156-239.660156 239.660156 28.660156 28.660156c3.734375 3.730469 9.785157 3.730469 13.515625 0l226.144532-226.144531c3.734374-3.730469 3.734374-9.78125 0-13.515625zm0 0" fill="#e2ebf9"/><path d="m93.230469 319.433594c-3.730469 3.734375-3.730469 9.785156 0 13.515625l85.820312 85.820312c3.734375 3.734375 9.785157 3.734375 13.515625 0l113.007813-113.007812-99.335938-99.335938zm0 0" fill="#ffaa16"/><path d="m150.390625 390.109375 28.660156 28.660156c3.734375 3.730469 9.785157 3.730469 13.515625 0l113.007813-113.007812-35.417969-35.417969zm0 0" fill="#ff914d"/><path d="m473.738281 116.144531-77.882812-77.882812c-3.453125-3.457031-3.453125-9.058594 0-12.511719l15.664062-15.667969c3.457031-3.453125 9.058594-3.453125 12.511719 0l77.886719 77.886719c3.453125 3.453125 3.453125 9.054688 0 12.511719l-15.667969 15.664062c-3.453125 3.453125-9.054688 3.453125-12.511719 0zm0 0" fill="#76ffda"/><path d="m501.917969 87.96875-29.105469-29.101562-28.175781 28.175781 29.101562 29.101562c3.457031 3.453125 9.058594 3.453125 12.511719 0l15.667969-15.664062c3.453125-3.457031 3.453125-9.058594 0-12.511719zm0 0" fill="#5de1c0"/><path d="m303.78125 171.585938c-1.917969 0-3.839844-.730469-5.304688-2.195313l-27.601562-27.601563c-2.929688-2.929687-2.929688-7.679687 0-10.605468 2.929688-2.929688 7.679688-2.929688 10.605469-.003906l27.601562 27.601562c2.929688 2.929688 2.929688 7.679688 0 10.609375-1.460937 1.464844-3.382812 2.195313-5.300781 2.195313zm0 0" fill="#c1c8d2"/><path d="m248.246094 209.644531c-1.917969 0-3.839844-.730469-5.304688-2.195312l-18.863281-18.863281c-2.925781-2.929688-2.925781-7.679688 0-10.609376 2.933594-2.925781 7.679687-2.925781 10.609375 0l18.863281 18.863282c2.929688 2.929687 2.929688 7.679687 0 10.609375-1.464843 1.464843-3.382812 2.195312-5.304687 2.195312zm0 0" fill="#c1c8d2"/><path d="m210.1875 265.175781c-1.917969 0-3.839844-.730469-5.304688-2.195312l-27.601562-27.601563c-2.925781-2.929687-2.925781-7.675781 0-10.605468 2.933594-2.929688 7.679688-2.929688 10.609375 0l27.601563 27.601562c2.929687 2.929688 2.929687 7.675781 0 10.605469-1.464844 1.464843-3.382813 2.195312-5.304688 2.195312zm0 0" fill="#ff8125"/><path d="m154.65625 303.234375c-1.917969 0-3.839844-.730469-5.304688-2.195313l-18.863281-18.863281c-2.929687-2.929687-2.929687-7.675781 0-10.605469 2.929688-2.929687 7.679688-2.929687 10.605469 0l18.863281 18.863282c2.929688 2.929687 2.929688 7.675781 0 10.605468-1.460937 1.464844-3.382812 2.195313-5.300781 2.195313zm0 0" fill="#ff8125"/><path d="m507.21875 82.664062-77.882812-77.882812c-6.371094-6.375-16.742188-6.375-23.117188 0l-15.664062 15.664062c-6.375 6.375-6.375 16.746094 0 23.117188l21.234374 21.238281-48.390624 48.390625-25.203126-25.203125c-3.222656-3.222656-7.507812-5-12.0625-5-4.558593 0-8.839843 1.777344-12.0625 4.996094l-226.144531 226.144531c-6.648437 6.652344-6.648437 17.472656 0 24.125l18.070313 18.066406-15.578125 15.582032c-3.398438 3.398437-5.273438 7.917968-5.273438 12.726562s1.875 9.328125 5.273438 12.730469l24.222656 24.222656c3.402344 3.402344 7.921875 5.273438 12.730469 5.273438s9.328125-1.871094 12.730468-5.273438l15.578126-15.578125 18.070312 18.070313c3.324219 3.324219 7.691406 4.988281 12.058594 4.988281 4.371094 0 8.738281-1.664062 12.0625-4.988281l182.699218-182.699219c2.929688-2.929688 2.929688-7.679688 0-10.609375-2.929687-2.929687-7.679687-2.925781-10.605468 0l-182.703125 182.699219c-.800781.804687-2.105469.804687-2.90625 0l-85.820313-85.820313c-.804687-.800781-.804687-2.105469 0-2.90625l226.144532-226.144531c.496093-.5 1.0625-.605469 1.453124-.605469.386719 0 .953126.105469 1.453126.605469l85.820312 85.820312c.5.5.605469 1.0625.605469 1.453126 0 .390624-.105469.957031-.605469 1.453124l-18.152344 18.152344c-2.929687 2.929688-2.929687 7.679688 0 10.609375 2.929688 2.925781 7.679688 2.925781 10.605469 0l18.152344-18.152343c3.222656-3.222657 4.996093-7.507813 4.996093-12.0625 0-4.558594-1.773437-8.839844-4.996093-12.0625l-25.203125-25.207032 48.390625-48.390625 21.234375 21.238281h.003906c3.1875 3.1875 7.371094 4.777344 11.558594 4.777344 4.183594 0 8.371094-1.59375 11.558594-4.777344l15.664062-15.667968c6.375-6.367188 6.375-16.738282 0-23.113282zm-377.726562 328.3125c-.765626.765626-1.65625.878907-2.121094.878907s-1.355469-.113281-2.121094-.878907l-24.226562-24.226562c-.761719-.765625-.878907-1.65625-.878907-2.121094s.117188-1.355468.878907-2.121094l15.582031-15.578124 28.464843 28.464843zm258.707031-272.984374-14.191407-14.191407 48.390626-48.390625 14.191406 14.191406zm108.414062-42.816407-15.664062 15.664063c-.523438.527344-1.382813.527344-1.90625 0l-77.882813-77.882813c-.523437-.523437-.523437-1.378906 0-1.90625l15.664063-15.664062c.523437-.523438 1.382812-.523438 1.90625 0l77.882812 77.882812c.523438.527344.523438 1.382813 0 1.90625zm0 0" fill="#434c54"/></svg>